<?xml version="1.0" encoding="utf-8"?>
<!-- Generator: Adobe Illustrator 19.1.0, SVG Export Plug-In . SVG Version: 6.00 Build 0)  -->
<svg version="1.1" id="Layer_1" xmlns="http://www.w3.org/2000/svg" xmlns:xlink="http://www.w3.org/1999/xlink" x="0px" y="0px"
	 viewBox="0 0 72 72" style="enable-background:new 0 0 72 72;" xml:space="preserve">
<style type="text/css">
	.st0{fill:#4BBEA0;}
	.st1{fill-rule:evenodd;clip-rule:evenodd;fill:#4BBEA0;}
</style>
<path class="st0" d="M350.5,32.8l22.9-16v40.4c0,0.2,0,0.4-0.1,0.6L350.5,32.8z M366.4,7.7c2,0,3.8,0.8,5.1,2.2l-33.5,23.4
	L303.4,9.4c1.2-1.1,2.8-1.8,4.6-1.8H366.4z M301.2,59.1c-0.2-0.6-0.3-1.2-0.3-1.9V16.1l24.3,16.7L301.2,59.1z M308,64.3
	c-0.7,0-1.3-0.1-1.9-0.3l24.9-27.3l7,4.8l6.8-4.8l24.5,26.8c-0.9,0.4-1.9,0.7-3,0.7H308z"/>
<g>
	<path class="st1" d="M230.6,64.2c-0.4,0-0.9,0-1.3,0c-8.3-0.4-14.4-3.7-18.9-8.2c-4.5-4.4-7.7-10.6-8.2-18.9c0-0.8,0-1.6,0-2.4
		c0.1,0,0.1-0.1,0.1-0.1c0.3-6.4,2.4-11.4,5.4-15.4c3-4,6.7-7.2,11.4-9.3c4.9-2.2,11.8-2.9,17.6-1.4c5.3,1.3,9.8,4.1,13.1,7.6
		c3.3,3.6,6.1,8,7.3,13.5c1.3,6.1,0.4,12.9-1.7,17.9C251.2,56.8,242.9,63.4,230.6,64.2z M224.4,12.5c3.2,4.5,6.1,9.3,8.9,14.1
		c5-2,9.2-4.7,12.3-8.6C241.4,13.6,232.7,10.5,224.4,12.5z M206.7,31.1c8.2,0,15.2-1.2,21.8-2.9c-2.4-4.8-5.6-9.5-8.7-14
		c0,0-0.1,0-0.1,0C213.2,17.6,208.6,22.9,206.7,31.1z M248.2,20.8c-3.3,4.3-7.9,7.2-13.2,9.5c0.8,1.6,1.4,3.3,2.2,4.8
		c5.4-0.8,11.6-0.2,16.4,0.7C253.5,29.1,251.3,24.5,248.2,20.8z M206.2,35.2c0,7.7,2.5,12.8,6.1,16.8c4.7-7.5,11.1-13.2,20.2-16.2
		c-0.7-1.3-1.2-2.8-2-4C223.4,33.9,215.5,35.3,206.2,35.2z M238.6,38.8c1.9,5.4,3.4,11.1,4.6,17.2c5-3.7,8.8-8.7,10.1-16.2
		C249.3,38.6,243.6,38,238.6,38.8z M215.4,54.9c2.6,2.2,6.3,4.1,10.5,4.9c4.7,0.8,9.7,0,13.2-1.6c-1.2-6.6-2.8-12.7-5.1-18.2
		C225.9,42.9,219.5,47.8,215.4,54.9z"/>
</g>
<g>
	<path class="st1" d="M32.3,44.7c-1.3,5.8-2.6,11.4-5.5,15.9c-0.9,1.3-1.7,3.1-3.2,3.8C21.4,53,26,43.5,27.8,34
		c-2.3-4.7-0.9-12.7,4.1-13.6c7.2-1.3,5.3,7.3,4.1,11.4c-0.7,2.2-1.9,4.3-1.7,6.7c0.4,5.1,6.8,5.4,10.1,2.8c4.7-3.8,6.1-11,5.6-17
		c-0.7-9.1-11-13.6-20.1-10c-4.7,1.9-8.9,6.2-9.5,12.5c-0.3,3.3,0.4,6,1.7,7.9c0.2,0.3,0.9,0.8,1,1.5c0.2,1.5-0.7,3.2-1.5,4.4
		c-4.7-1.3-7.1-5.5-7.4-10.8c-0.9-12,9-21.2,20.6-22C47.1,6.9,57,14,57.9,24.5c0.7,7.8-2.1,15.6-6.5,19.8c-3.3,3.2-10.3,6.2-16,3.2
		C34.1,46.8,33.6,46,32.3,44.7z"/>
</g>
<g>
	<g>
		<path class="st1" d="M-231.5,17.6c-0.4,2.3-3.9,4.3-5.5,6.6c1.8,27-29.4,45.2-53.5,30.7c6.7,0.3,13.2-1.8,17.6-4.8
			c-4.3-1.1-9.8-3.7-11-9c1.8,0.7,3.1,0,5.2,0c-5.1-2.1-9.2-5-9.3-12.1c1.6,0.5,2.9,1.2,4.8,1.4c-3.2-2.1-6.8-10.4-3.5-16.2
			c6.1,6.5,13.6,11.7,25.2,12.8c-2.5-13.9,13.3-18.8,21-11.4c3-0.3,5.4-1.2,7.2-2.8c0.5,2.7-2.7,4.6-4.1,6.6
			C-235.2,18.9-233.1,18.5-231.5,17.6z"/>
	</g>
</g>
<g>
	<path class="st0" d="M-357.5,26.5h5.8v-5.6c0-2.5,0.1-6.3,1.9-8.7c1.9-2.5,4.5-4.2,9-4.2c7.3,0,10.4,1,10.4,1l-1.4,8.6
		c0,0-2.4-0.7-4.7-0.7c-2.3,0-4.3,0.8-4.3,3.1v6.5h9.2l-0.6,8.4h-8.6V64h-10.8V34.9h-5.8V26.5z"/>
</g>
<g>
	<g>
		<path class="st0" d="M-449.4,63.6h-22.3c-9,0-16.3-7.3-16.3-16.3V24.7c0-9,7.3-16.3,16.3-16.3h22.3c9,0,16.3,7.3,16.3,16.3v22.7
			C-433.1,56.3-440.5,63.6-449.4,63.6z M-471.7,13.3c-6.2,0-11.3,5.1-11.3,11.3v22.7c0,6.2,5.1,11.3,11.3,11.3h22.3
			c6.2,0,11.3-5.1,11.3-11.3V24.7c0-6.2-5.1-11.3-11.3-11.3H-471.7z"/>
	</g>
	<g>
		<circle class="st0" cx="-445.9" cy="21.4" r="3.3"/>
	</g>
	<g>
		<path class="st0" d="M-460.6,50c-7.7,0-14-6.3-14-14s6.3-14,14-14c7.7,0,14,6.3,14,14S-452.9,50-460.6,50z M-460.6,26.8
			c-5.1,0-9.2,4.1-9.2,9.2s4.1,9.2,9.2,9.2c5.1,0,9.2-4.1,9.2-9.2S-455.5,26.8-460.6,26.8z"/>
	</g>
</g>
</svg>
