<?xml version="1.0" encoding="utf-8"?>
<!-- Generator: Adobe Illustrator 19.1.0, SVG Export Plug-In . SVG Version: 6.00 Build 0)  -->
<svg version="1.1" id="Layer_1" xmlns="http://www.w3.org/2000/svg" xmlns:xlink="http://www.w3.org/1999/xlink" x="0px" y="0px"
	 viewBox="0 0 72 72" style="enable-background:new 0 0 72 72;" xml:space="preserve">
<style type="text/css">
	.st0{fill:#4BBEA0;}
	.st1{fill-rule:evenodd;clip-rule:evenodd;fill:#4BBEA0;}
</style>
<path class="st0" d="M45.9,33.7l16.9-11.8v29.9c0,0.1,0,0.3,0,0.4L45.9,33.7z M57.6,15.1c1.5,0,2.8,0.6,3.7,1.6L36.6,33.9L11,16.4
	c0.9-0.8,2.1-1.3,3.4-1.3H57.6z M9.4,53.1c-0.1-0.4-0.2-0.9-0.2-1.4V21.3l18,12.4L9.4,53.1z M14.4,56.9c-0.5,0-1-0.1-1.4-0.2
	l18.4-20.1l5.2,3.6l5.1-3.5l18.1,19.8c-0.7,0.3-1.4,0.5-2.2,0.5H14.4z"/>
<g>
	<path class="st1" d="M-89.3,64.2c-0.4,0-0.9,0-1.3,0c-8.3-0.4-14.4-3.7-18.9-8.2c-4.5-4.4-7.7-10.6-8.2-18.9c0-0.8,0-1.6,0-2.4
		c0.1,0,0.1-0.1,0.1-0.1c0.3-6.4,2.4-11.4,5.4-15.4c3-4,6.7-7.2,11.4-9.3c4.9-2.2,11.8-2.9,17.6-1.4c5.3,1.3,9.8,4.1,13.1,7.6
		c3.3,3.6,6.1,8,7.3,13.5c1.3,6.1,0.4,12.9-1.7,17.9C-68.7,56.8-77,63.4-89.3,64.2z M-95.5,12.5c3.2,4.5,6.1,9.3,8.9,14.1
		c5-2,9.2-4.7,12.3-8.6C-78.6,13.6-87.2,10.5-95.5,12.5z M-113.2,31.1c8.2,0,15.2-1.2,21.8-2.9c-2.4-4.8-5.6-9.5-8.7-14
		c0,0-0.1,0-0.1,0C-106.7,17.6-111.3,22.9-113.2,31.1z M-71.7,20.8C-75,25-79.6,28-84.8,30.2c0.8,1.6,1.4,3.3,2.2,4.8
		c5.4-0.8,11.6-0.2,16.4,0.7C-66.5,29.1-68.6,24.5-71.7,20.8z M-113.7,35.2c0,7.7,2.5,12.8,6.1,16.8c4.7-7.5,11.1-13.2,20.2-16.2
		c-0.7-1.3-1.2-2.8-2-4C-96.6,33.9-104.4,35.3-113.7,35.2z M-81.3,38.8c1.9,5.4,3.4,11.1,4.6,17.2c5-3.7,8.8-8.7,10.1-16.2
		C-70.6,38.6-76.4,38-81.3,38.8z M-104.5,54.9c2.6,2.2,6.3,4.1,10.5,4.9c4.7,0.8,9.7,0,13.2-1.6c-1.2-6.6-2.8-12.7-5.1-18.2
		C-94.1,42.9-100.4,47.8-104.5,54.9z"/>
</g>
<g>
	<path class="st1" d="M-146.7,44.7c-1.3,5.8-2.6,11.4-5.5,15.9c-0.9,1.3-1.7,3.1-3.2,3.8c-2.2-11.3,2.4-20.8,4.2-30.3
		c-2.3-4.7-0.9-12.7,4.1-13.6c7.2-1.3,5.3,7.3,4.1,11.4c-0.7,2.2-1.9,4.3-1.7,6.7c0.4,5.1,6.8,5.4,10.1,2.8c4.7-3.8,6.1-11,5.6-17
		c-0.7-9.1-11-13.6-20.1-10c-4.7,1.9-8.9,6.2-9.5,12.5c-0.3,3.3,0.4,6,1.7,7.9c0.2,0.3,0.9,0.8,1,1.5c0.2,1.5-0.7,3.2-1.5,4.4
		c-4.7-1.3-7.1-5.5-7.4-10.8c-0.9-12,9-21.2,20.6-22c12.4-0.9,22.2,6.3,23.2,16.7c0.7,7.8-2.1,15.6-6.5,19.8
		c-3.3,3.2-10.3,6.2-16,3.2C-144.9,46.8-145.4,46-146.7,44.7z"/>
</g>
<g>
	<g>
		<path class="st1" d="M-231.5,17.6c-0.4,2.3-3.9,4.3-5.5,6.6c1.8,27-29.4,45.2-53.5,30.7c6.7,0.3,13.2-1.8,17.6-4.8
			c-4.3-1.1-9.8-3.7-11-9c1.8,0.7,3.1,0,5.2,0c-5.1-2.1-9.2-5-9.3-12.1c1.6,0.5,2.9,1.2,4.8,1.4c-3.2-2.1-6.8-10.4-3.5-16.2
			c6.1,6.5,13.6,11.7,25.2,12.8c-2.5-13.9,13.3-18.8,21-11.4c3-0.3,5.4-1.2,7.2-2.8c0.5,2.7-2.7,4.6-4.1,6.6
			C-235.2,18.9-233.1,18.5-231.5,17.6z"/>
	</g>
</g>
<g>
	<path class="st0" d="M-357.5,26.5h5.8v-5.6c0-2.5,0.1-6.3,1.9-8.7c1.9-2.5,4.5-4.2,9-4.2c7.3,0,10.4,1,10.4,1l-1.4,8.6
		c0,0-2.4-0.7-4.7-0.7c-2.3,0-4.3,0.8-4.3,3.1v6.5h9.2l-0.6,8.4h-8.6V64h-10.8V34.9h-5.8V26.5z"/>
</g>
<g>
	<g>
		<path class="st0" d="M-449.4,63.6h-22.3c-9,0-16.3-7.3-16.3-16.3V24.7c0-9,7.3-16.3,16.3-16.3h22.3c9,0,16.3,7.3,16.3,16.3v22.7
			C-433.1,56.3-440.5,63.6-449.4,63.6z M-471.7,13.3c-6.2,0-11.3,5.1-11.3,11.3v22.7c0,6.2,5.1,11.3,11.3,11.3h22.3
			c6.2,0,11.3-5.1,11.3-11.3V24.7c0-6.2-5.1-11.3-11.3-11.3H-471.7z"/>
	</g>
	<g>
		<circle class="st0" cx="-445.9" cy="21.4" r="3.3"/>
	</g>
	<g>
		<path class="st0" d="M-460.6,50c-7.7,0-14-6.3-14-14s6.3-14,14-14c7.7,0,14,6.3,14,14S-452.9,50-460.6,50z M-460.6,26.8
			c-5.1,0-9.2,4.1-9.2,9.2s4.1,9.2,9.2,9.2c5.1,0,9.2-4.1,9.2-9.2S-455.5,26.8-460.6,26.8z"/>
	</g>
</g>
</svg>
