<?xml version="1.0" encoding="utf-8"?>
<!-- Generator: Adobe Illustrator 19.1.0, SVG Export Plug-In . SVG Version: 6.00 Build 0)  -->
<svg version="1.1" id="Layer_1" xmlns="http://www.w3.org/2000/svg" xmlns:xlink="http://www.w3.org/1999/xlink" x="0px" y="0px"
	 viewBox="0 0 72 72" style="enable-background:new 0 0 72 72;" xml:space="preserve">
<style type="text/css">
	.st0{fill:#4BBEA0;}
	.st1{fill-rule:evenodd;clip-rule:evenodd;fill:#4BBEA0;}
</style>
<path class="st0" d="M821.5,32.8l22.9-16v40.4c0,0.2,0,0.4-0.1,0.6L821.5,32.8z M837.4,7.7c2,0,3.8,0.8,5.1,2.2l-33.5,23.4
	L774.4,9.4c1.2-1.1,2.8-1.8,4.6-1.8H837.4z M772.2,59.1c-0.2-0.6-0.3-1.2-0.3-1.9V16.1l24.3,16.7L772.2,59.1z M779,64.3
	c-0.7,0-1.3-0.1-1.9-0.3l24.9-27.3l7,4.8l6.8-4.8l24.5,26.8c-0.9,0.4-1.9,0.7-3,0.7H779z"/>
<g>
	<path class="st1" d="M638.8,64.2c-0.4,0-0.9,0-1.3,0c-8.3-0.4-14.4-3.7-18.9-8.2c-4.5-4.4-7.7-10.6-8.2-18.9c0-0.8,0-1.6,0-2.4
		c0.1,0,0.1-0.1,0.1-0.1c0.3-6.4,2.4-11.4,5.4-15.4c3-4,6.7-7.2,11.4-9.3c4.9-2.2,11.8-2.9,17.6-1.4c5.3,1.3,9.8,4.1,13.1,7.6
		c3.3,3.6,6.1,8,7.3,13.5c1.3,6.1,0.4,12.9-1.7,17.9C659.4,56.8,651.1,63.4,638.8,64.2z M632.6,12.5c3.2,4.5,6.1,9.3,8.9,14.1
		c5-2,9.2-4.7,12.3-8.6C649.6,13.6,640.9,10.5,632.6,12.5z M614.9,31.1c8.2,0,15.2-1.2,21.8-2.9c-2.4-4.8-5.6-9.5-8.7-14
		c0,0-0.1,0-0.1,0C621.4,17.6,616.8,22.9,614.9,31.1z M656.4,20.8c-3.3,4.3-7.9,7.2-13.2,9.5c0.8,1.6,1.4,3.3,2.2,4.8
		c5.4-0.8,11.6-0.2,16.4,0.7C661.6,29.1,659.5,24.5,656.4,20.8z M614.4,35.2c0,7.7,2.5,12.8,6.1,16.8c4.7-7.5,11.1-13.2,20.2-16.2
		c-0.7-1.3-1.2-2.8-2-4C631.6,33.9,623.7,35.3,614.4,35.2z M646.8,38.8c1.9,5.4,3.4,11.1,4.6,17.2c5-3.7,8.8-8.7,10.1-16.2
		C657.5,38.6,651.8,38,646.8,38.8z M623.6,54.9c2.6,2.2,6.3,4.1,10.5,4.9c4.7,0.8,9.7,0,13.2-1.6c-1.2-6.6-2.8-12.7-5.1-18.2
		C634,42.9,627.7,47.8,623.6,54.9z"/>
</g>
<g>
	<path class="st1" d="M486.5,44.7c-1.3,5.8-2.6,11.4-5.5,15.9c-0.9,1.3-1.7,3.1-3.2,3.8C475.6,53,480.2,43.5,482,34
		c-2.3-4.7-0.9-12.7,4.1-13.6c7.2-1.3,5.3,7.3,4.1,11.4c-0.7,2.2-1.9,4.3-1.7,6.7c0.4,5.1,6.8,5.4,10.1,2.8c4.7-3.8,6.1-11,5.6-17
		c-0.7-9.1-11-13.6-20.1-10c-4.7,1.9-8.9,6.2-9.5,12.5c-0.3,3.3,0.4,6,1.7,7.9c0.2,0.3,0.9,0.8,1,1.5c0.2,1.5-0.7,3.2-1.5,4.4
		c-4.7-1.3-7.1-5.5-7.4-10.8c-0.9-12,9-21.2,20.6-22c12.4-0.9,22.2,6.3,23.2,16.7c0.7,7.8-2.1,15.6-6.5,19.8
		c-3.3,3.2-10.3,6.2-16,3.2C488.3,46.8,487.8,46,486.5,44.7z"/>
</g>
<g>
	<g>
		<path class="st1" d="M347.3,14.9c-0.4,2.6-4.5,5-6.3,7.5c2,30.8-33.6,51.7-61,35.1c7.6,0.4,15.1-2.1,20.1-5.5
			c-4.9-1.3-11.2-4.2-12.6-10.2c2,0.8,3.6,0,5.9,0c-5.8-2.4-10.6-5.7-10.6-13.8c1.8,0.5,3.3,1.4,5.5,1.6c-3.7-2.4-7.8-11.9-3.9-18.5
			c7,7.4,15.5,13.4,28.8,14.6c-2.8-15.8,15.2-21.5,24-13c3.5-0.3,6.2-1.4,8.3-3.2c0.6,3.1-3.1,5.3-4.7,7.5
			C343.1,16.5,345.5,16,347.3,14.9z"/>
	</g>
</g>
<g>
	<path class="st0" d="M22.5,26.5h5.8v-5.6c0-2.5,0.1-6.3,1.9-8.7C32,9.7,34.6,8,39.1,8c7.3,0,10.4,1,10.4,1l-1.4,8.6
		c0,0-2.4-0.7-4.7-0.7c-2.3,0-4.3,0.8-4.3,3.1v6.5h9.2l-0.6,8.4h-8.6V64H28.3V34.9h-5.8V26.5z"/>
</g>
<g>
	<g>
		<path class="st0" d="M-69.4,63.6h-22.3c-9,0-16.3-7.3-16.3-16.3V24.7c0-9,7.3-16.3,16.3-16.3h22.3c9,0,16.3,7.3,16.3,16.3v22.7
			C-53.1,56.3-60.5,63.6-69.4,63.6z M-91.7,13.3c-6.2,0-11.3,5.1-11.3,11.3v22.7c0,6.2,5.1,11.3,11.3,11.3h22.3
			c6.2,0,11.3-5.1,11.3-11.3V24.7c0-6.2-5.1-11.3-11.3-11.3H-91.7z"/>
	</g>
	<g>
		<circle class="st0" cx="-65.9" cy="21.4" r="3.3"/>
	</g>
	<g>
		<path class="st0" d="M-80.6,50c-7.7,0-14-6.3-14-14s6.3-14,14-14s14,6.3,14,14S-72.9,50-80.6,50z M-80.6,26.8
			c-5.1,0-9.2,4.1-9.2,9.2s4.1,9.2,9.2,9.2s9.2-4.1,9.2-9.2S-75.5,26.8-80.6,26.8z"/>
	</g>
</g>
</svg>
