<?xml version="1.0" encoding="utf-8"?>
<!-- Generator: Adobe Illustrator 19.1.0, SVG Export Plug-In . SVG Version: 6.00 Build 0)  -->
<svg version="1.1" id="Layer_1" xmlns="http://www.w3.org/2000/svg" xmlns:xlink="http://www.w3.org/1999/xlink" x="0px" y="0px"
	 viewBox="0 0 291.6 51.7" style="enable-background:new 0 0 291.6 51.7;" xml:space="preserve">
<style type="text/css">
	.st0{fill:#BEE3D7;}
	.st1{fill:#51BF9F;}
	.st2{fill:#FFFFFF;}
	.st3{fill:#979797;}
</style>
<g>
	<g>
		<g>
			<path class="st0" d="M31.2,50.1l-0.5-0.4c-0.4-0.3-9.4-7.2-12.3-10.2c-4.9-5.2-9.6-10.1-9.6-16.7c0-11.7,10-21.3,22.4-21.3
				c12.2,0,22.1,9.5,22.1,21.3c0,6.6-4.7,11.5-9.6,16.7c-2.8,3-11.6,9.9-12,10.2L31.2,50.1z M31.2,3.3c-11.4,0-20.7,8.8-20.7,19.6
				c0,5.9,4.4,10.6,9.1,15.5c2.4,2.5,9.5,8.1,11.5,9.6c2-1.6,8.9-7.1,11.3-9.6c4.7-4.9,9.1-9.6,9.1-15.5
				C51.6,12.1,42.4,3.3,31.2,3.3z"/>
		</g>
	</g>
	<g>
		<g>
			<path class="st0" d="M31.2,50.1l-0.5-0.4c-0.4-0.3-9.4-7.2-12.3-10.2c-4.9-5.2-9.6-10.1-9.6-16.7c0-11.7,10-21.3,22.4-21.3"/>
		</g>
	</g>
	<g>
		<g>
			<path class="st0" d="M31.2,50.1l-0.5-0.4c-0.4-0.3-9.4-7.2-12.3-10.2c-4.9-5.2-9.6-10.1-9.6-16.7c0-11.7,10-21.3,22.4-21.3"/>
		</g>
	</g>
	<g>
		<g>
			<path class="st1" d="M31,1.6c12.3,0,22.4,9.5,22.4,21.3c0,6.6-4.7,11.5-9.6,16.7c-2.8,3-11.9,9.9-12.3,10.2L31,50.1"/>
			<path class="st1" d="M31,50.2L31,50.1l0.5-0.4c0.4-0.3,9.4-7.2,12.3-10.2c4.9-5.2,9.6-10.1,9.6-16.6c0-11.7-10-21.2-22.3-21.2
				V1.5c12.4,0,22.5,9.6,22.5,21.3c0,6.6-4.7,11.5-9.6,16.7c-2.9,3-11.9,9.9-12.3,10.2L31,50.2z"/>
		</g>
	</g>
	<g>
		<g>
			<path class="st2" d="M29.4,38.9L29.4,38.9l-8-8.4l-4-4.3c-1.5-1.5-2.3-3.5-2.3-5.6c0-2.1,0.8-4.1,2.3-5.6c3.1-3.1,8.1-3.1,11.1,0
				l2.5,2.5l2.6-2.6c3.1-3.1,8.1-3.1,11.1,0c3.1,3.1,3.1,8.1,0,11.1l-4.2,4.6l-7.8,8.1l-1.7,1.7L29.4,38.9"/>
		</g>
	</g>
	<g>
		<g>
			<path class="st2" d="M29.4,38.9L29.4,38.9l-8-8.4l-4-4.3c-1.5-1.5-2.3-3.5-2.3-5.6c0-2.1,0.8-4.1,2.3-5.6c3.1-3.1,8.1-3.1,11.1,0
				l2.5,2.5"/>
		</g>
	</g>
	<g>
		<path class="st1" d="M31,20.4L27,16.5c-2.3-2.3-6-2.3-8.3,0c-1.1,1.1-1.7,2.6-1.7,4.1c0,1.6,0.6,3,1.7,4.1l0,0l4,4.3l8.4,8.6"/>
	</g>
	<g>
		<path class="st0" d="M31,20.4l4.3-3.9c2.3-2.3,6-2.3,8.3,0c1.1,1.1,1.7,2.6,1.7,4.1c0,1.6-0.6,3-1.7,4.1l0,0l-4,4.3l-8.4,8.6"/>
	</g>
	<g>
		<g>
			<path class="st2" d="M31.1,20.4l0.8,1c0.1,0.1,1.3,1.6,1.7,2.2c0.1,0.2,0.3,0.4,0.5,0.6c0.6,0.7,1.3,1.6,1.3,2.8
				c0,2.7-2.1,4.1-4.2,4.1 M31.1,29.1c0.8,0,2.2-0.4,2.2-2.1c0-0.5-0.3-0.9-0.8-1.5c-0.2-0.2-0.4-0.5-0.6-0.8
				c-0.1-0.2-0.5-0.6-0.8-1"/>
		</g>
	</g>
	<g>
		<path class="st2" d="M31.2,31.1c-2.1,0-4.2-1.4-4.2-4.1c0-1.2,0.7-2.1,1.3-2.8c0.2-0.2,0.3-0.4,0.5-0.6c0.4-0.6,1.6-2.1,1.6-2.2
			l0.8-1"/>
	</g>
	<g>
		<path class="st1" d="M31,23.7l-0.3,4.4l0.3,1c0,0,1.1,0.1,1.8-0.8c0.7-0.9,0.4-1.6,0.3-1.8c-0.1-0.2-0.5-0.7-0.5-0.7L31,23.7z"/>
	</g>
	<g>
		<path class="st0" d="M31,23.7L31,23.7L31,23.7c-0.3,0.4-0.6,0.8-0.8,1c-0.2,0.3-0.4,0.5-0.6,0.8c-0.5,0.6-0.8,1.1-0.8,1.5
			c0,1.5,1.2,2.1,2.2,2.1l0,0l0,0L31,23.7z"/>
	</g>
</g>
<g>
	<g>
		<g>
			<path class="st3" d="M118.7,32.8l0.2-1c0.5-1.1,2-7.2,2.2-8c0.2-0.8,0.4-2.4,0.4-2.4c0.6,0.4,1.2,0.3,1.5,0.2
				c0.3-0.1,0.9-0.7,0.9-1.2c0.1-0.6-0.2-1.2-0.5-1.5c-1.3-1.2-2.6-2.2-6.5-2.2c-4.4,0-7.2,3.6-7.2,3.6c-3.4,3.6-3.5,7.6-3.5,7.6
				c-0.7,1-1.2,1.9-1.8,2.4c-0.6,0.5-0.8,0.6-1.1,0.4c-0.3-0.2,0-0.9,0-0.9c0.5-3.2,1.2-4.4,1.8-7.1c0.6-2.7,0-4.2-0.7-5
				c-0.7-0.8-2-1.3-4-0.9C98.6,17.3,97,19,97,19c0.4-1.2-0.3-1.7-0.3-1.7c-0.2-0.2-0.6-0.4-1.9-0.4s-1.8,1-1.8,1l-2.3,8.7
				c0,0-1.1,1.6-2.5,1.3c0,0,1.5-2,1.4-5.7c0-0.8-0.1-3.4-2.6-4.6c-3.2-1.5-6.2,0-6.2,0s-4.5,1.2-6.1,6.5c-1.2,4.1-0.5,6.1-0.1,7.2
				c0.5,1.2,1.3,2.3,2.5,2.8c1.2,0.5,2.2,0.4,3.4,0.3c0.9,0,3.1-0.7,5.5-3c0,0,1.9,0.5,3.5-0.3c0,0-0.6,2-0.1,2.7
				c0.6,0.6,1.2,0.8,1.8,0.8s1.7-0.1,2.1-0.9c0.4-0.7,1-4.3,1-4.3c0.9-4,2.2-5.7,3.2-6.8c0.4-0.4,2.2-2.6,3.7-2.3
				c1,0.2,0.5,1.9,0.3,2.4c-0.8,2.1-0.5,0.8-1.9,5.3c-1.4,4.5,0.8,5.5,0.8,5.5c3.6,1.9,6.4-1.8,6.4-1.8c0.6,1.4,1.8,2.5,4.3,2.3
				c2.1-0.2,3.6-1.2,3.6-1.2l-0.5,1.6c-5.8,1.9-7,5-7,5c-2.1,4.6,1.9,5.6,1.9,5.6s3,0.9,5.2-1c2.2-1.9,3.4-7.3,3.4-7.3
				s4.4-1.3,6.5-3.7c1.2-1.2,1.3-1.3,1.5-1.8c0.4-0.9,0.4-1.8-0.7-2.3c-0.8-0.3-1.4,0-2,0.6C121.3,31.4,118.7,32.8,118.7,32.8z
				 M84.2,26.4c0,0-1.1-0.6-1.9,0.6c-1,1.5,0.1,2.3,0.1,2.3c-0.3,0.7-4,2.5-4-1.3c0-3.8,1.7-5.8,1.7-5.8s2.1-3,4.1-2.2
				C86.5,20.9,84.2,26.4,84.2,26.4z M112.4,41.1c-0.3,0.4-1,1.1-1.8,0.8c-0.5-0.2-0.5-0.8-0.2-1.4c0.4-0.9,1.8-2.2,3.9-3
				C114.3,37.4,113.9,39.2,112.4,41.1z M117.3,22.9c-0.6,1.6-0.9,3.3-1.9,4.9c-1.2,1.9-2.9,2.4-3.9,1.6c-1.5-1.4-0.3-4.9,2-7.4
				c0,0,3-2.7,5.6-1.6c0.1,0,0.1,0,0.1,0c0,0-0.1,0-0.1,0C118.9,20.4,118.2,20.5,117.3,22.9z"/>
		</g>
		<g>
			<path class="st3" d="M218.7,13.4c0,1.2-0.9,2.2-2.1,2.2s-2.2-0.9-2.2-2.1s1.1-2.2,2.2-2.2C217.7,11.3,218.7,12.2,218.7,13.4z"/>
		</g>
		<g>
			<path class="st3" d="M210.6,9.4c0,0-1.9-3.7-7.1-3.5c-2,0.1-5.1,0.7-6.6,4.8c0,0-1.4,4.2,1.6,7.5c0,0,3.4,3.7,4.2,4.7
				c0.8,1,2.6,3.2,1.1,6.3s-5.3,2.1-5.3,2.1s2.8-2,2.9-5.9c0-3.7-2.8-4.3-4.1-4.4c-1.3-0.1-4,0.3-4.9,3.3c-0.6,1.9-0.8,3.2-0.1,5.9
				l-1.8,0.5c0,0-1.1,0.5-0.9,1.8c0.3,1.3,1.7,1.4,1.7,1.4s2,0.2,3.4-0.6c0,0,4.6,3.7,10.8,0.1c0,0,4.4-2.4,3.6-8.1
				c-0.1-1-0.8-3.3-2.7-5.2c0,0-2.7-2.8-3.8-3.9c-1-1.1-2.6-5.2,0.4-6.7c0,0,3.1-1.2,4.4,1.6c0,0,0.4,0.7,0.2,1.5
				c-0.2,1.1,1,1.8,2,1.7c0.9,0,1.5-0.5,1.8-1.2C211.4,12.6,211.7,11.3,210.6,9.4z M195.8,29c0,0-1-1.4,0-3.3c0,0,0.5-1.1,1.3-1
				c0.5,0.1,0.8,0.5,0.8,1.1C197.9,26.5,197.4,27.9,195.8,29z"/>
		</g>
		<g>
			<path class="st3" d="M184.2,26c-1.6-0.5-2.5,1.6-2.5,1.6c-0.8,1.4-2.4,3.3-5.6,3.2c-3.1-0.2-2.6-3.6-2.6-3.6
				c2.4,0.5,5.8,0,8.3-2.4c2.4-2.4,1.5-5.7,0.3-6.9c-1.4-1.3-4.8-2.2-8.4,0.2c-3.6,2.3-4.1,6.7-4.1,6.7c-1.7,3.9-4.4,4-4.4,4
				c2.4-4.3,2.9-5.9,3.6-8.2c0.4-1.3,0.3-2.4,0-3c-0.4-0.6-1.1-1-2.4-1c-1.1,0-2.1,0.7-2.1,2.1c-0.1,3.7-2.4,8.1-2.4,8.1
				s-1.3-0.3-1.9,0.6c-0.7,0.9,0,2.1,0,2.1c-0.7,0.8-1.8,1.4-2.5,1c-0.7-0.3-0.1-2.9-0.1-2.9s1.5-5.9,2.2-7.5
				c0.7-1.4,0.6-2.4,0.4-2.6c-0.1-0.2-0.5-0.9-2.2-0.8c-1.6,0.1-2,1.4-2,1.4c-1.2,2.6-2.5,8.8-2.5,8.8c-1.5,2.7-2.7,4.2-3.6,3.7
				c-0.4-0.2,0.1-2,0.1-2s1.9-6.7,2.5-8.6c0.8-2.4-0.1-2.7-0.1-2.7s-0.4-0.5-2.1-0.6c-1.3,0-1.6,1.7-1.8,2.4c-0.9,2.5-1,3.6-2.6,9.1
				c-1.3,4.7,1.4,5.7,1.4,5.7c3.8,1.8,6.2-2.4,6.2-2.4c1.2,2.5,2.8,2.8,3.6,2.8c2.8,0,5.9-3.1,5.9-3.1c1.7,0.5,2.8,0.2,2.8,0.2
				c2.2-0.3,3.8-1.9,3.8-1.9c0.7,2.3,1.3,3.1,3,3.9c2.6,1.4,6.7,1,9.1-0.5c2.4-1.5,3.2-3.7,3.5-4.3C185.2,28,185.8,26.5,184.2,26z
				 M175.9,20.7c0.8-0.7,1.8-1.2,2.8-0.4c0.6,0.5,0.7,1.2,0.3,1.9c-0.5,1-2.3,1.8-5,2C174,24.2,174.3,22,175.9,20.7z"/>
		</g>
		<g>
			<path class="st3" d="M283.4,26.2c-1.6-0.5-2.5,1.6-2.5,1.6c-0.8,1.4-2.4,3.3-5.6,3.2c-3.1-0.2-2.6-3.6-2.6-3.6
				c2.4,0.5,5.8,0,8.3-2.4c2.4-2.4,1.5-5.7,0.3-6.9c-1.4-1.3-4.8-2.2-8.4,0.2s-4.1,6.7-4.1,6.7c-3.2,5.8-4.9,5.7-5.9,5.5
				c-2.2-0.5-0.5-6.2-0.5-6.2c6.2-3.6,8.6-9.7,8.8-10.9c0.2-1.1,1.2-5.3-2.3-6.4c-3.4-1.1-6.2,3.7-6.2,3.7
				c-3.5,5.1-4.9,15.3-4.9,15.3c-1.9,2.9-3.4,2.5-3.4,2.5c1.4-2.8,1.5-6.1,1.5-6.1s0.1-4.9-3.8-5.6c-3.8-0.7-5.4,1.3-5.4,1.3
				s0.2-1.2-1.9-1.2c-2.1,0-2.2,1.7-2.2,1.7l-2.7,9.8c-1.1,1.6-2,1.9-2,1.9s-1.7,0.8-0.3-2.6c1.2-2.9,1.9-5.7,1.8-7.3
				c0-0.6-0.1-3.4-3.1-3.7c-3.6-0.4-5.3,2.2-5.3,2.2c0.1-1.3-0.8-2.2-2.9-2.2c-2.7,0-4.4,1.9-4.4,1.9c0.1-0.6-0.1-1.1-0.2-1.2
				c-0.2-0.2-0.5-0.5-1.7-0.5c-1.6,0.1-2.3,0.6-2.6,2c-0.6,3.4-1.6,8.3-1.6,8.3c-1.5,2.7-3.2,4-3.6,3.7c-0.4-0.3,0.1-2,0.1-2
				s2-6.7,2.5-8.6c0.6-2-0.1-2.4-0.1-2.4s-0.4-0.5-2.1-0.6c-1.3,0-1.6,1.4-1.8,2c-0.9,2.5-1,3.6-2.6,9.1c-1.3,4.7,1,5.6,1,5.6
				c2.6,1.2,5.3-1.4,5.3-1.4s-0.1,0.7,0.5,1c0.5,0.3,0.6,0.4,1.8,0.4s1.4-0.2,2-1.5l1.6-6.7l0.7-2.7c0,0,1.4-1.4,2.4-2.1
				c0.8-0.6,2.2-0.7,1.9,0.7c-0.3,1.4-0.8,2.9-1.2,5.1c0,0-1,4.2-1.2,5.4c-0.1,0.7,0.4,1.2,1.1,1.5c0.5,0.2,1.2,0.3,2,0
				c0.6-0.2,0.9-0.7,1.3-1.8s1.8-8.4,1.8-8.4s0.9-0.9,1.9-2.1c1.1-1.2,2.5-0.7,2.3,0.5c-0.3,1.3-1.7,5.6-1.7,5.6s-1.4,3.8,0.1,5.8
				c0.3,0.3,0.9,0.9,2.1,0.9c1,0,1.8,0,3.3-1.1l-2.1,8.8c-0.5,1.6,0.1,2.1,0.5,2.4c0.6,0.5,1.9,0.6,2.6,0.3c0.9-0.4,0.9-1,1.2-2.2
				c0.7-2.3,1.9-9.2,1.9-9.2s1,1.1,4.3,0.8c3.3-0.3,5-2.7,5-2.7c3,0.9,5.1-1.2,5.1-1.2c0.7,3.9,3.9,3.9,3.9,3.9c4.6,0.4,7.1-4,7.1-4
				c0.7,2.3,1.3,3.1,3,3.9c2.6,1.4,6.7,1,9.1-0.5c2.4-1.5,3.2-3.7,3.5-4.3C284.5,28.3,285,26.8,283.4,26.2z M275.1,20.9
				c0.8-0.7,1.8-1.2,2.8-0.4c0.6,0.5,0.7,1.2,0.3,1.9c-0.5,1-2.3,1.8-5,2C273.3,24.4,273.6,22.2,275.1,20.9z M265.4,12.9
				c0.4-0.8,1.3-2.3,2.2-2.3c0.5,0,0.6,0.8,0.2,2c-0.5,1.6-2.2,4.5-4.8,7C263,19.5,263.5,16.7,265.4,12.9z M250.8,26.4
				c-0.8,0-1.4,0.1-1.8,1c-0.5,1.1,0.1,2,0.1,2c-1.5,1.1-2.2,1.1-3,1.1c-2.2-0.1-1.9-1.6-1.9-1.6l1.5-6.2c1.3-1.3,2-2.2,3-2.5
				c2.7-0.9,3,1.2,3.1,1.5C252.1,24,250.8,26.4,250.8,26.4z"/>
		</g>
		<g>
			<path class="st3" d="M153.6,38.4c0,0-0.5-1.4-2-1c-1.3,0.3-3.4,1.4-5.5-0.5c-2.1-1.9-4.6-4.2-4.6-4.2s2-4.9,5.7-22.1
				c0,0,0.6-1.9-1.6-2.3c-2.4-0.5-2.7,1.2-2.7,1.2s-2,11.7-4.8,20.3c0,0-2.7-1.7-5.6-0.9c-2.4,0.7-3.4,2.4-3.4,3.8
				c0,2.3,1.3,3.7,3.3,4.2c1.6,0.5,3.8,0.5,6.6-1.9c0,0,3.5,4.4,6.4,5.7c0,0,3.2,1.9,7.5,0C152.8,40.7,154.3,40.2,153.6,38.4z
				 M133.7,33.9c0,0-1-0.1-1.1-0.9c-0.1-0.5,0.2-0.9,0.6-1.1c0.6-0.3,1.8-0.3,3.1,0.8C136.2,32.7,135.5,34.2,133.7,33.9z"/>
		</g>
		<g>
			<path class="st3" d="M154,13.2c0,1.2-0.9,2.2-2.1,2.2s-2.2-0.9-2.2-2.1s1.1-2.2,2.2-2.2C153.1,11.1,154,12,154,13.2z"/>
		</g>
	</g>
	<g>
		<path class="st3" d="M81.7,38.4c0,0-0.5-1.4-2-1c-1.3,0.3-3.4,1.4-5.5-0.5c-2.1-1.9-4.6-4.2-4.6-4.2s2-4.9,5.7-22.1
			c0,0,0.6-1.9-1.6-2.3c-2.4-0.5-2.7,1.2-2.7,1.2s-2,11.7-4.8,20.3c0,0-2.7-1.7-5.6-0.9c-2.4,0.7-3.4,2.4-3.4,3.8
			c0,2.3,1.3,3.7,3.3,4.2c1.6,0.5,3.8,0.5,6.6-1.9c0,0,3.5,4.4,6.4,5.7c0,0,3.2,1.9,7.5,0C80.9,40.7,82.4,40.2,81.7,38.4z
			 M61.8,33.9c0,0-1-0.1-1.1-0.9c-0.1-0.5,0.2-0.9,0.6-1.1c0.6-0.3,1.8-0.3,3.1,0.8C64.3,32.7,63.6,34.2,61.8,33.9z"/>
	</g>
</g>
</svg>
