<?xml version="1.0" encoding="utf-8"?>
<!-- Generator: Adobe Illustrator 21.1.0, SVG Export Plug-In . SVG Version: 6.00 Build 0)  -->
<svg version="1.1" xmlns="http://www.w3.org/2000/svg" xmlns:xlink="http://www.w3.org/1999/xlink" x="0px" y="0px"
	 viewBox="0 0 133 133" style="enable-background:new 0 0 133 133;" xml:space="preserve">
<style type="text/css">
	.st0{fill:#F9F9F9;}
	.st1{fill:#FFFFFF;}
	.st2{fill:#55B393;}
	.st3{fill:#73D8C5;}
	.st4{fill:#96E1D6;}
	.st5{fill:#AFEFE5;}
	.st6{fill:#FDFDFD;}
	.st7{fill:#DBF5F3;}
	.st8{fill:none;stroke:#DCF5F3;stroke-width:0.5;stroke-miterlimit:10;}
	.st9{fill:url(#SVGID_5_);}
	.st10{fill:none;stroke:#FFFFFF;stroke-miterlimit:10;}
	.st11{fill:#FFFFFF;stroke:#FFFFFF;stroke-miterlimit:10;}
	.st12{fill:none;stroke:#D3D3D3;stroke-miterlimit:10;}
	.st13{fill:#FFFFFF;stroke:#D3D3D3;stroke-width:0.75;stroke-miterlimit:10;}
	.st14{fill:#96E1D6;stroke:#96E1D6;stroke-miterlimit:10;}
	.st15{fill:none;stroke:#D3D3D3;stroke-width:0.75;stroke-miterlimit:10;}
	.st16{fill:#D3D3D3;}
	.st17{fill:none;}
	.st18{fill:#D3D3D3;stroke:#D3D3D3;stroke-width:0.12;stroke-miterlimit:10;}
	.st19{fill:none;stroke:#D3D3D3;stroke-width:2;stroke-miterlimit:10;}
	.st20{fill:#D3D3D3;stroke:#D3D3D3;stroke-miterlimit:10;}
	.st21{fill:#D3D3D3;stroke:#D3D3D3;stroke-width:0.25;stroke-miterlimit:10;}
	.st22{fill:none;stroke:#FFFFFF;stroke-width:2;stroke-miterlimit:10;}
	.st23{fill:none;stroke:#FFFFFF;stroke-width:6;stroke-miterlimit:10;}
	.st24{fill:none;stroke:#FFFFFF;stroke-width:3;stroke-miterlimit:10;}
	.st25{fill:none;stroke:#FFFFFF;stroke-width:4;stroke-miterlimit:10;}
	.st26{fill:#FFFFFF;stroke:#D3D3D3;stroke-width:0.12;stroke-miterlimit:10;}
	.st27{fill:#969696;stroke:#D3D3D3;stroke-miterlimit:10;}
	.st28{fill:#A1D7CA;}
	.st29{fill:#4CBFA0;}
	.st30{fill:#969696;}
	.st31{fill:#FFFFFF;stroke:#FFFFFF;stroke-width:0.5;stroke-miterlimit:10;}
	.st32{fill:none;stroke:#969696;stroke-width:3;stroke-miterlimit:10;}
	.st33{fill:#C1C1C1;}
</style>
<g id="Layer_1">
</g>
<g id="Layer_2">
	<g>
		<defs>
			<rect id="SVGID_1_" x="-204.7" y="-176.4" width="272.8" height="272.8"/>
		</defs>
		<clipPath id="SVGID_5_">
			<use xlink:href="#SVGID_1_"  style="overflow:visible;"/>
		</clipPath>
	</g>
	<g>
		<defs>
			<rect id="SVGID_4_" x="-207" y="-176.4" width="272.8" height="272.8"/>
		</defs>
		<clipPath id="SVGID_6_">
			<use xlink:href="#SVGID_4_"  style="overflow:visible;"/>
		</clipPath>
	</g>
	<g>
		<defs>
			<rect id="SVGID_2_" x="-66.5" y="-176.4" width="272.8" height="272.8"/>
		</defs>
		<clipPath id="SVGID_7_">
			<use xlink:href="#SVGID_2_"  style="overflow:visible;"/>
		</clipPath>
	</g>
	<g>
		<path class="st1" d="M66.2,92l18.5-18.9l8.2-9l0,0c2.6-2.6,4-6.1,4-9.7c0-3.7-1.5-7.1-4.1-9.7c-5.4-5.3-14.1-5.3-19.4,0l-7.7,6.9
			l-7-6.9c-5.3-5.4-14.1-5.4-19.4-0.1c-2.6,2.6-4,6-4.1,9.7c0,3.7,1.4,7.1,4,9.7l8.2,9L66.2,92z M65.8,58.5c2.3,2.7,3.4,4.3,3.9,5.1
			c0.1,0.1,0.2,0.3,0.3,0.4c0.1,0.1,0.1,0.2,0.1,0.2c0.2,0.3,0.2,0.6,0.3,1c0,0,0,0.1,0,0.1c0,0,0,0.1,0,0.1c0,0.5-0.1,0.9-0.1,1
			c0,0,0,0,0,0c0,0,0,0.1,0,0.1c0,0.1-0.1,0.1-0.1,0.2c-0.1,0.3-0.2,0.6-0.3,0.8c0,0.1-0.1,0.1-0.2,0.2c-0.1,0.2-0.3,0.4-0.4,0.5
			c-0.1,0.1-0.2,0.2-0.3,0.3c-0.1,0.1-0.2,0.2-0.3,0.3c-0.1,0.1-0.3,0.2-0.4,0.2c-0.1,0-0.2,0.1-0.3,0.1c-0.2,0.1-0.3,0.1-0.5,0.2
			c-0.1,0-0.2,0.1-0.3,0.1c-0.2,0-0.4,0.1-0.5,0.1c-0.1,0-0.1,0-0.2,0c-0.3,0-0.5,0-0.6,0v0h0h0c-0.7,0-1.5-0.2-2.3-0.5
			c-0.1,0-0.1-0.1-0.2-0.1c-0.2-0.1-0.4-0.2-0.5-0.3c-0.1-0.1-0.2-0.2-0.3-0.2c-0.1-0.1-0.2-0.2-0.3-0.3c-0.2-0.2-0.3-0.4-0.4-0.6
			c0,0,0,0,0,0c-0.3-0.5-0.3-0.9-0.3-0.9c0,0,0,0,0,0l0,0C61,64.8,61.7,64,61.7,64c0,0,0,0,0-0.1c0.1-0.2,0.3-0.4,0.4-0.6
			C63.7,61,65.8,58.5,65.8,58.5z M41.8,61.7c-2-2-3-4.6-3-7.4c0-2.8,1.1-5.4,3.1-7.4c4.1-4.1,10.7-4,14.8,0.1l7.3,7.1
			c-0.7,0.9-2.4,3.1-3,4c-0.3,0.4-0.6,0.9-1,1.3c-1.2,1.5-2.6,3.3-2.6,5.8c0,5.4,4.1,8.3,8.3,8.5v0h0.1c0.1,0,0.2,0,0.3,0v0h0v0
			c0.1,0,0.2,0,0.3,0h0.4v0c4.1-0.3,8-3.2,8-8.4c0-2.5-1.4-4.2-2.6-5.8c-0.4-0.5-0.7-0.9-1-1.3c-0.6-0.9-2.2-2.9-3-3.9l7.9-7.2
			l0.1-0.1c4.1-4.1,10.7-4.1,14.7,0c2,2,3.1,4.6,3.1,7.4c0,2.8-1.1,5.4-3,7.4l-8.3,9.1L66.2,87.3L50.1,70.8l-8.2-9L41.8,61.7z"/>
		<path class="st1" d="M67.2,10.7L67.2,10.7l-2.7,0l-0.3,0v0c-13,0.5-25.1,5.6-34.2,14.5c-9.2,9-14.3,20.8-14.3,33.3
			c0,14.9,10.4,25.8,21.4,37.4c5.9,6.2,23.7,19.9,26.6,22.2l0.2,0.1c0,0,0.1,0,0.1,0.1l0.2,0.2v0l1.7,1.3l1.9-1.5
			c2.1-1.6,20.8-16,26.9-22.4c11-11.5,21.4-22.4,21.4-37.4C116,32.8,94.2,11.4,67.2,10.7z M18.8,58.5c0-24.5,21-44.6,46.9-44.8
			l0.1,0l0.2,0c25.9,0.2,46.9,20.2,46.9,44.8c0,13.7-10,24.1-20.5,35.2c-5.9,6.2-24.4,20.5-26.5,22.1l0,0l0,0
			c-2.1-1.6-20.6-15.9-26.5-22.1C28.8,82.7,18.8,72.2,18.8,58.5z"/>
	</g>
</g>
</svg>
