<?xml version="1.0" encoding="utf-8"?>
<!-- Generator: Adobe Illustrator 21.1.0, SVG Export Plug-In . SVG Version: 6.00 Build 0)  -->
<svg version="1.1" xmlns="http://www.w3.org/2000/svg" xmlns:xlink="http://www.w3.org/1999/xlink" x="0px" y="0px"
	 viewBox="0 0 133 133" style="enable-background:new 0 0 133 133;" xml:space="preserve">
<style type="text/css">
	.st0{fill:#F9F9F9;}
	.st1{fill:#FFFFFF;}
	.st2{fill:#55B393;}
	.st3{fill:#73D8C5;}
	.st4{fill:#96E1D6;}
	.st5{fill:#AFEFE5;}
	.st6{fill:#FDFDFD;}
	.st7{fill:#DBF5F3;}
	.st8{fill:none;stroke:#DCF5F3;stroke-width:0.5;stroke-miterlimit:10;}
	.st9{fill:url(#SVGID_5_);}
	.st10{fill:none;stroke:#FFFFFF;stroke-miterlimit:10;}
	.st11{fill:#FFFFFF;stroke:#FFFFFF;stroke-miterlimit:10;}
	.st12{fill:none;stroke:#D3D3D3;stroke-miterlimit:10;}
	.st13{fill:#FFFFFF;stroke:#D3D3D3;stroke-width:0.75;stroke-miterlimit:10;}
	.st14{fill:#96E1D6;stroke:#96E1D6;stroke-miterlimit:10;}
	.st15{fill:none;stroke:#D3D3D3;stroke-width:0.75;stroke-miterlimit:10;}
	.st16{fill:#D3D3D3;}
	.st17{fill:none;}
	.st18{fill:#D3D3D3;stroke:#D3D3D3;stroke-width:0.12;stroke-miterlimit:10;}
	.st19{fill:none;stroke:#D3D3D3;stroke-width:2;stroke-miterlimit:10;}
	.st20{fill:#D3D3D3;stroke:#D3D3D3;stroke-miterlimit:10;}
	.st21{fill:#D3D3D3;stroke:#D3D3D3;stroke-width:0.25;stroke-miterlimit:10;}
	.st22{fill:none;stroke:#FFFFFF;stroke-width:2;stroke-miterlimit:10;}
	.st23{fill:none;stroke:#FFFFFF;stroke-width:6;stroke-miterlimit:10;}
	.st24{fill:none;stroke:#FFFFFF;stroke-width:3;stroke-miterlimit:10;}
	.st25{fill:none;stroke:#FFFFFF;stroke-width:4;stroke-miterlimit:10;}
	.st26{fill:#FFFFFF;stroke:#D3D3D3;stroke-width:0.12;stroke-miterlimit:10;}
	.st27{fill:#969696;stroke:#D3D3D3;stroke-miterlimit:10;}
	.st28{fill:#A1D7CA;}
	.st29{fill:#4CBFA0;}
	.st30{fill:#969696;}
	.st31{fill:#FFFFFF;stroke:#FFFFFF;stroke-width:0.5;stroke-miterlimit:10;}
	.st32{fill:none;stroke:#969696;stroke-width:3;stroke-miterlimit:10;}
	.st33{fill:#C1C1C1;}
</style>
<g id="Layer_1">
</g>
<g id="Layer_2">
	<g>
		<defs>
			<rect id="SVGID_3_" x="-66.5" y="-176.4" width="272.8" height="272.8"/>
		</defs>
		<clipPath id="SVGID_5_">
			<use xlink:href="#SVGID_3_"  style="overflow:visible;"/>
		</clipPath>
	</g>
	<g>
		<path class="st1" d="M69.8,13.7L69.8,13.7l-2.7,0l-0.3,0v0c-13,0.5-25.1,5.6-34.2,14.5c-9.2,9-14.3,20.8-14.3,33.3
			c0,14.9,10.4,25.8,21.4,37.4c5.9,6.2,23.7,19.9,26.6,22.2l0.2,0.1c0,0,0.1,0,0.1,0.1l0.2,0.2v0l1.7,1.3l1.9-1.5
			c2.1-1.6,20.8-16,26.9-22.4c11-11.5,21.4-22.4,21.4-37.4C118.7,35.9,96.8,14.5,69.8,13.7z M21.4,61.6c0-24.5,21-44.6,46.9-44.8
			l0.1,0l0.2,0c25.9,0.2,46.9,20.2,46.9,44.8c0,13.7-10,24.1-20.5,35.2c-5.9,6.2-24.4,20.5-26.5,22.1l0,0l0,0
			c-2.1-1.6-20.6-15.9-26.5-22.1C31.4,85.7,21.4,75.3,21.4,61.6z"/>
		<path class="st1" d="M67.3,91.5l1.4,1l0.5-0.4l0,0l0.8-0.6l0,0c2.5-1.9,10.5-8.1,13.2-10.9c5.4-5.7,10.6-11.1,10.6-18.7
			c0-13.1-11.1-23.9-24.9-24v0c-0.1,0-0.1,0-0.2,0c-0.1,0-0.1,0-0.2,0v0c-13.8,0.2-24.9,10.9-24.9,24c0,7.6,5.1,13,10.6,18.7
			C57.3,83.9,66.9,91.2,67.3,91.5z M73.8,84.4c-2.2,1.8-4.2,3.3-5.2,4.1c-2.5-1.9-6.2-4.9-9.1-7.3l10.2-10.1h5L73.8,84.4z
			 M90.5,61.9c0,6.3-4.7,11.2-9.7,16.4c-0.8,0.8-2.1,2-3.5,3.2L78,70.9l1.6-15.8l10.3,1.9C90.3,58.7,90.5,60.3,90.5,61.9z
			 M63.6,41.8c1.6-0.4,3.3-0.6,5.1-0.6c9,0.1,16.7,5.2,20,12.6l-10.4-2.1h-0.2c-1.3,0-7,0.4-8.5,0.5l-6.1-2.6V41.8z M60.4,42.7v5.4
			l-5.4-2.3C56.6,44.6,58.4,43.5,60.4,42.7z M46.9,61.9c0-5.2,2.1-10,5.5-13.7l1.6,0.7l6.4,2.7v10.8H46.9
			C46.9,62.3,46.9,62.1,46.9,61.9z M63.6,65.7V53l5.5,2.4l0.4,0c1.5-0.1,4.7-0.3,6.9-0.4l-1.3,12.9h-6.6L57.2,79
			c-0.2-0.2-0.5-0.5-0.7-0.6c-3.9-4.1-7.7-8.1-9.1-12.7H63.6z"/>
	</g>
	<g>
		<defs>
			<rect id="SVGID_1_" x="74" y="-176.4" width="272.8" height="272.8"/>
		</defs>
		<clipPath id="SVGID_6_">
			<use xlink:href="#SVGID_1_"  style="overflow:visible;"/>
		</clipPath>
	</g>
	<g>
		<defs>
			<rect id="SVGID_4_" x="71.8" y="-176.4" width="272.8" height="272.8"/>
		</defs>
		<clipPath id="SVGID_7_">
			<use xlink:href="#SVGID_4_"  style="overflow:visible;"/>
		</clipPath>
	</g>
</g>
</svg>
