<?xml version="1.0" encoding="utf-8"?>
<!-- Generator: Adobe Illustrator 21.1.0, SVG Export Plug-In . SVG Version: 6.00 Build 0)  -->
<svg version="1.1" xmlns="http://www.w3.org/2000/svg" xmlns:xlink="http://www.w3.org/1999/xlink" x="0px" y="0px"
	 viewBox="0 0 133 133" style="enable-background:new 0 0 133 133;" xml:space="preserve">
<style type="text/css">
	.st0{fill:#F9F9F9;}
	.st1{fill:#FFFFFF;}
	.st2{fill:#55B393;}
	.st3{fill:#73D8C5;}
	.st4{fill:#96E1D6;}
	.st5{fill:#AFEFE5;}
	.st6{fill:#FDFDFD;}
	.st7{fill:#DBF5F3;}
	.st8{fill:none;stroke:#DCF5F3;stroke-width:0.5;stroke-miterlimit:10;}
	.st9{fill:url(#SVGID_5_);}
	.st10{fill:none;stroke:#FFFFFF;stroke-miterlimit:10;}
	.st11{fill:#FFFFFF;stroke:#FFFFFF;stroke-miterlimit:10;}
	.st12{fill:none;stroke:#D3D3D3;stroke-miterlimit:10;}
	.st13{fill:#FFFFFF;stroke:#D3D3D3;stroke-width:0.75;stroke-miterlimit:10;}
	.st14{fill:#96E1D6;stroke:#96E1D6;stroke-miterlimit:10;}
	.st15{fill:none;stroke:#D3D3D3;stroke-width:0.75;stroke-miterlimit:10;}
	.st16{fill:#D3D3D3;}
	.st17{fill:none;}
	.st18{fill:#D3D3D3;stroke:#D3D3D3;stroke-width:0.12;stroke-miterlimit:10;}
	.st19{fill:none;stroke:#D3D3D3;stroke-width:2;stroke-miterlimit:10;}
	.st20{fill:#D3D3D3;stroke:#D3D3D3;stroke-miterlimit:10;}
	.st21{fill:#D3D3D3;stroke:#D3D3D3;stroke-width:0.25;stroke-miterlimit:10;}
	.st22{fill:none;stroke:#FFFFFF;stroke-width:2;stroke-miterlimit:10;}
	.st23{fill:none;stroke:#FFFFFF;stroke-width:6;stroke-miterlimit:10;}
	.st24{fill:none;stroke:#FFFFFF;stroke-width:3;stroke-miterlimit:10;}
	.st25{fill:none;stroke:#FFFFFF;stroke-width:4;stroke-miterlimit:10;}
	.st26{fill:#FFFFFF;stroke:#D3D3D3;stroke-width:0.12;stroke-miterlimit:10;}
	.st27{fill:#969696;stroke:#D3D3D3;stroke-miterlimit:10;}
	.st28{fill:#A1D7CA;}
	.st29{fill:#4CBFA0;}
	.st30{fill:#969696;}
	.st31{fill:#FFFFFF;stroke:#FFFFFF;stroke-width:0.5;stroke-miterlimit:10;}
	.st32{fill:none;stroke:#969696;stroke-width:3;stroke-miterlimit:10;}
	.st33{fill:#C1C1C1;}
</style>
<g id="Layer_1">
</g>
<g id="Layer_2">
	<g>
		<defs>
			<rect id="SVGID_3_" x="-207" y="-176.4" width="272.8" height="272.8"/>
		</defs>
		<clipPath id="SVGID_5_">
			<use xlink:href="#SVGID_3_"  style="overflow:visible;"/>
		</clipPath>
	</g>
	<g>
		<defs>
			<rect id="SVGID_1_" x="-66.5" y="-176.4" width="272.8" height="272.8"/>
		</defs>
		<clipPath id="SVGID_6_">
			<use xlink:href="#SVGID_1_"  style="overflow:visible;"/>
		</clipPath>
	</g>
	<g>
		<defs>
			<rect id="SVGID_4_" x="-68.7" y="-176.4" width="272.8" height="272.8"/>
		</defs>
		<clipPath id="SVGID_7_">
			<use xlink:href="#SVGID_4_"  style="overflow:visible;"/>
		</clipPath>
	</g>
	<g>
		<defs>
			<rect id="SVGID_2_" x="71.8" y="-176.4" width="272.8" height="272.8"/>
		</defs>
		<clipPath id="SVGID_8_">
			<use xlink:href="#SVGID_2_"  style="overflow:visible;"/>
		</clipPath>
	</g>
	<g>
		<path class="st1" d="M52.5,85.1c3.9,3.1,9.1,4.8,14.7,4.8l0.3,0l0.1,0c0.3,0,0.6,0,0.9,0l1.1,0l0,0c4.8-0.4,9.3-2,12.7-4.7
			c4.9-3.8,7.4-9.7,7.4-16.9c0-5.1-3.2-9.3-8.4-15.8l0,0c-1.9-2.3-3.8-4.8-5.6-7.4c-1.6-2.3-4.8-6.7-7.3-10l-0.6-0.8l-0.4-0.6l0-0.2
			l-0.1,0.1l-0.1-0.1l0,0.2L67,34.3l-0.6,0.8c-2.4,3.2-5.7,7.6-7.3,10c-1.8,2.6-3.7,5-5.6,7.4l0,0c-5.2,6.4-8.4,10.7-8.4,15.8
			C45.1,75.4,47.7,81.3,52.5,85.1z M79,54.5L79,54.5c4.8,5.9,7.7,9.7,7.7,13.8c0,6.3-2.1,11.1-6.2,14.3c-2.6,2.1-6.7,3.5-10.7,4
			L69.7,77c0.1,0,0.2,0,0.2-0.1l8.5-7.1c0.4-0.3,0.4-0.9,0.1-1.2l-0.8-1c-0.3-0.4-0.9-0.4-1.2-0.1l-6.9,5.7l0-4c0.1,0,0.2,0,0.2-0.1
			l6.4-5.7c0.4-0.3,0.4-0.9,0.1-1.2l-0.8-1c-0.3-0.4-0.9-0.4-1.2-0.1l-4.7,4.2l0-4.1c0.1,0,0.2,0,0.3-0.1l4.1-3.5
			c0.4-0.3,0.4-0.9,0.1-1.2l-0.8-1c-0.3-0.4-0.9-0.4-1.2-0.1l-2.4,2.1l-0.2-16.4C72.3,45.5,77.4,52.6,79,54.5z M56,54.5L56,54.5
			c1.6-2,7-9.5,10-13.7l0.2,16.5l-2-1.8c-0.4-0.3-0.9-0.3-1.2,0.1l-0.8,1c-0.3,0.4-0.3,0.9,0.1,1.2l4,3.5l0,4l-4.5-4
			c-0.4-0.3-0.9-0.3-1.2,0.1l-0.8,1c-0.3,0.4-0.3,0.9,0.1,1.2l6.4,5.7c0,0,0.1,0,0.1,0l0,4l-6.8-5.7c-0.4-0.3-0.9-0.3-1.2,0.1
			l-0.8,1c-0.3,0.4-0.3,0.9,0.1,1.2l8.5,7.1c0.1,0.1,0.2,0.1,0.3,0.1l0.1,9.7c-4.3-0.3-9.1-1.8-12-4.1c-4.1-3.3-6.2-8.1-6.2-14.3
			C48.3,64.2,51.3,60.4,56,54.5z"/>
		<path class="st1" d="M68.7,13.7L68.7,13.7l-2.7,0l-0.3,0v0c-13,0.5-25.1,5.6-34.2,14.5c-9.2,9-14.3,20.8-14.3,33.3
			c0,14.9,10.4,25.8,21.4,37.4c5.9,6.2,23.7,19.9,26.6,22.2l0.2,0.1c0,0,0.1,0,0.1,0.1l0.2,0.2v0l1.7,1.3l1.9-1.5
			c2.1-1.6,20.8-16,26.9-22.4c11-11.5,21.4-22.4,21.4-37.4C117.6,35.9,95.7,14.5,68.7,13.7z M20.4,61.6c0-24.5,21-44.6,46.9-44.8
			l0.1,0l0.2,0c25.9,0.2,46.9,20.2,46.9,44.8c0,13.7-10,24.1-20.5,35.2c-5.9,6.2-24.4,20.5-26.5,22.1l0,0l0,0
			c-2.1-1.6-20.6-15.9-26.5-22.1C30.3,85.7,20.4,75.3,20.4,61.6z"/>
	</g>
</g>
</svg>
