<?xml version="1.0" encoding="utf-8"?>
<!-- Generator: Adobe Illustrator 19.1.0, SVG Export Plug-In . SVG Version: 6.00 Build 0)  -->
<svg version="1.1" xmlns="http://www.w3.org/2000/svg" xmlns:xlink="http://www.w3.org/1999/xlink" x="0px" y="0px"
	 viewBox="0 0 80 80" style="enable-background:new 0 0 80 80;" xml:space="preserve">
<style type="text/css">
	.st0{fill:#F9F9F9;}
	.st1{fill:#FFFFFF;}
	.st2{fill:#55B393;}
	.st3{fill:#73D8C5;}
	.st4{fill:#96E1D6;}
	.st5{fill:#AFEFE5;}
	.st6{fill:#FDFDFD;}
	.st7{fill:#DBF5F3;}
	.st8{fill:none;stroke:#DCF5F3;stroke-width:0.5;stroke-miterlimit:10;}
	.st9{fill:url(#SVGID_1_);}
	.st10{fill:none;stroke:#FFFFFF;stroke-miterlimit:10;}
	.st11{fill:#FFFFFF;stroke:#FFFFFF;stroke-miterlimit:10;}
	.st12{fill:none;stroke:#D3D3D3;stroke-miterlimit:10;}
	.st13{fill:#FFFFFF;stroke:#D3D3D3;stroke-width:0.75;stroke-miterlimit:10;}
	.st14{fill:#96E1D6;stroke:#96E1D6;stroke-miterlimit:10;}
	.st15{fill:none;stroke:#D3D3D3;stroke-width:0.75;stroke-miterlimit:10;}
	.st16{fill:#D3D3D3;}
	.st17{fill:none;}
	.st18{fill:#D3D3D3;stroke:#D3D3D3;stroke-width:0.12;stroke-miterlimit:10;}
	.st19{fill:none;stroke:#D3D3D3;stroke-width:2;stroke-miterlimit:10;}
	.st20{fill:#D3D3D3;stroke:#D3D3D3;stroke-miterlimit:10;}
	.st21{fill:#D3D3D3;stroke:#D3D3D3;stroke-width:0.25;stroke-miterlimit:10;}
	.st22{fill:none;stroke:#FFFFFF;stroke-width:2;stroke-miterlimit:10;}
	.st23{fill:none;stroke:#FFFFFF;stroke-width:6;stroke-miterlimit:10;}
	.st24{fill:none;stroke:#FFFFFF;stroke-width:3;stroke-miterlimit:10;}
	.st25{fill:none;stroke:#FFFFFF;stroke-width:4;stroke-miterlimit:10;}
	.st26{fill:#FFFFFF;stroke:#D3D3D3;stroke-width:0.12;stroke-miterlimit:10;}
	.st27{fill:#969696;stroke:#D3D3D3;stroke-miterlimit:10;}
	.st28{fill:#A1D7CA;}
	.st29{fill:#4CBFA0;}
	.st30{fill:#969696;}
	.st31{fill:#FFFFFF;stroke:#FFFFFF;stroke-width:0.5;stroke-miterlimit:10;}
	.st32{fill:none;stroke:#969696;stroke-width:3;stroke-miterlimit:10;}
	.st33{fill:#C1C1C1;}
</style>
<g id="Layer_1">
</g>
<g id="Layer_2">
	<g>
		<g>
			<path class="st29" d="M55.1,14h-8.4c0,0,1.9-7.9-7.1-7.7c0,0-7.8-0.4-5.6,8.8L24.3,14v2.3v9.9l32-0.7L55.1,14z M40.2,15.4
				c-1.6,0-2.9-1.3-2.9-2.9s1.3-2.9,2.9-2.9c1.6,0,2.9,1.3,2.9,2.9S41.8,15.4,40.2,15.4z"/>
		</g>
		<g>
			<g>
				<g>
					<g>
						<g>
							<g>
								<path class="st30" d="M62.1,73.4h-45c-1.3,0-2.3-1-2.3-2.3V16.3c0-1.3,1-2.3,2.3-2.3h7.2v2.3h-7.2v54.9h45V16.3h-7V14h7
									c1.3,0,2.3,1,2.3,2.3v54.9C64.4,72.4,63.4,73.4,62.1,73.4z"/>
							</g>
						</g>
					</g>
					<g>
						<g>
							<g>
								<path class="st30" d="M62.1,74.6h-45c-1.9,0-3.5-1.6-3.5-3.5V16.3c0-1.9,1.6-3.5,3.5-3.5h8.4v4.7h-7.2V70h42.6V17.5h-7v-4.7
									h8.2c1.9,0,3.5,1.6,3.5,3.5v54.9C65.6,73.1,64,74.6,62.1,74.6z"/>
							</g>
						</g>
					</g>
				</g>
			</g>
			<g>
				<g>
					<g>
						<g>
							<g>
								<path class="st30" d="M56.3,26.7H23.1V12.8h8.6v-1.9c0-3.8,3.6-6.9,7.9-6.9c2.1,0,4,0.7,5.5,2c1.5,1.3,2.4,3,2.4,4.9v1.9
									h8.2v1.1h0.6V26.7z M25.4,24.5H54v-9.4h-8.8v-4.2c0-1.2-0.6-2.3-1.6-3.2c-1.1-0.9-2.5-1.4-4-1.4c-3.1,0-5.6,2.1-5.6,4.6v4.2
									h-8.6V24.5z"/>
							</g>
						</g>
					</g>
				</g>
			</g>
			<g>
				<g>
					<g>
						<g>
							<g>
								<rect x="23.1" y="32.4" class="st30" width="21.1" height="2.3"/>
							</g>
						</g>
					</g>
				</g>
			</g>
			<g>
				<g>
					<g>
						<g>
							<g>
								<rect x="23.1" y="40.6" class="st30" width="8.6" height="2.3"/>
							</g>
						</g>
					</g>
				</g>
			</g>
			<g>
				<g>
					<g>
						<g>
							<g>
								<rect x="23.1" y="48" class="st30" width="33.2" height="2.3"/>
							</g>
						</g>
					</g>
				</g>
			</g>
			<g>
				<g>
					<g>
						<g>
							<g>
								<rect x="23.1" y="54.4" class="st30" width="33.3" height="2.3"/>
							</g>
						</g>
					</g>
				</g>
			</g>
			<g>
				<g>
					<g>
						<g>
							<g>
								<rect x="23.1" y="62" class="st30" width="33.3" height="2.3"/>
							</g>
						</g>
					</g>
				</g>
			</g>
		</g>
		<g>
			<g>
				<g>
					<g>
						<path class="st30" d="M39.7,15.8c-2,0-3.6-1.6-3.6-3.6s1.6-3.6,3.6-3.6c2,0,3.6,1.6,3.6,3.6S41.7,15.8,39.7,15.8z M39.7,11.1
							c-0.7,0-1.2,0.5-1.2,1.2c0,0.7,0.5,1.2,1.2,1.2c0.7,0,1.2-0.5,1.2-1.2C40.9,11.6,40.3,11.1,39.7,11.1z"/>
					</g>
				</g>
			</g>
		</g>
		<g>
			<g>
				<g>
					<polygon class="st28" points="53,43.6 50.2,40.6 51.5,39.4 53.1,41 56,38.2 57.2,39.5 					"/>
				</g>
			</g>
		</g>
		<g>
			<g>
				<g>
					<polygon class="st28" points="53,36.6 50.2,33.6 51.5,32.3 53.1,33.9 56,31.1 57.2,32.5 					"/>
				</g>
			</g>
		</g>
	</g>
</g>
</svg>
