<?xml version="1.0" encoding="utf-8"?>
<!-- Generator: Adobe Illustrator 19.1.0, SVG Export Plug-In . SVG Version: 6.00 Build 0)  -->
<svg version="1.1" xmlns="http://www.w3.org/2000/svg" xmlns:xlink="http://www.w3.org/1999/xlink" x="0px" y="0px"
	 viewBox="0 0 80 80" style="enable-background:new 0 0 80 80;" xml:space="preserve">
<style type="text/css">
	.st0{fill:#F9F9F9;}
	.st1{fill:#FFFFFF;}
	.st2{fill:#55B393;}
	.st3{fill:#73D8C5;}
	.st4{fill:#96E1D6;}
	.st5{fill:#AFEFE5;}
	.st6{fill:#FDFDFD;}
	.st7{fill:#DBF5F3;}
	.st8{fill:none;stroke:#DCF5F3;stroke-width:0.5;stroke-miterlimit:10;}
	.st9{fill:url(#SVGID_1_);}
	.st10{fill:none;stroke:#FFFFFF;stroke-miterlimit:10;}
	.st11{fill:#FFFFFF;stroke:#FFFFFF;stroke-miterlimit:10;}
	.st12{fill:none;stroke:#D3D3D3;stroke-miterlimit:10;}
	.st13{fill:#FFFFFF;stroke:#D3D3D3;stroke-width:0.75;stroke-miterlimit:10;}
	.st14{fill:#96E1D6;stroke:#96E1D6;stroke-miterlimit:10;}
	.st15{fill:none;stroke:#D3D3D3;stroke-width:0.75;stroke-miterlimit:10;}
	.st16{fill:#D3D3D3;}
	.st17{fill:none;}
	.st18{fill:#D3D3D3;stroke:#D3D3D3;stroke-width:0.12;stroke-miterlimit:10;}
	.st19{fill:none;stroke:#D3D3D3;stroke-width:2;stroke-miterlimit:10;}
	.st20{fill:#D3D3D3;stroke:#D3D3D3;stroke-miterlimit:10;}
	.st21{fill:#D3D3D3;stroke:#D3D3D3;stroke-width:0.25;stroke-miterlimit:10;}
	.st22{fill:none;stroke:#FFFFFF;stroke-width:2;stroke-miterlimit:10;}
	.st23{fill:none;stroke:#FFFFFF;stroke-width:6;stroke-miterlimit:10;}
	.st24{fill:none;stroke:#FFFFFF;stroke-width:3;stroke-miterlimit:10;}
	.st25{fill:none;stroke:#FFFFFF;stroke-width:4;stroke-miterlimit:10;}
	.st26{fill:#FFFFFF;stroke:#D3D3D3;stroke-width:0.12;stroke-miterlimit:10;}
	.st27{fill:#969696;stroke:#D3D3D3;stroke-miterlimit:10;}
	.st28{fill:#A1D7CA;}
	.st29{fill:#4CBFA0;}
	.st30{fill:#969696;}
	.st31{fill:#FFFFFF;stroke:#FFFFFF;stroke-width:0.5;stroke-miterlimit:10;}
	.st32{fill:none;stroke:#969696;stroke-width:3;stroke-miterlimit:10;}
	.st33{fill:#C1C1C1;}
</style>
<g id="Layer_1">
</g>
<g id="Layer_2">
	<g>
		<g>
			<polygon class="st28" points="38.7,37.6 32.8,39.7 45.3,72.1 51.5,68.3 			"/>
		</g>
		<g>
			<polygon class="st29" points="37.8,38.8 32.8,39.7 45.9,70.4 			"/>
		</g>
		<g>
			<g>
				<g>
					<g>
						<path class="st30" d="M44.9,72.7L31.5,39.3l7.4-2.8l13.4,33.4L44.9,72.7z M33.8,40.4l12.1,30l4-1.5l-12.1-30L33.8,40.4z"/>
					</g>
				</g>
			</g>
		</g>
		<g>
			<g>
				<g>
					<g>
						<path class="st30" d="M50.5,77c-0.3,0-0.7-0.1-0.9-0.4L44.3,71l7.2-2.7l0.3,7.4c0,0.5-0.3,1-0.8,1.2C50.8,77,50.7,77,50.5,77z
							 M47.4,71.8l2.5,2.6l-0.1-3.5L47.4,71.8z"/>
					</g>
				</g>
			</g>
		</g>
		<g>
			<g>
				<g>
					<g>
						<path class="st30" d="M56.3,68.9h-6.4v-4.8h6.4c0.8,0,1.4-0.6,1.4-1.3V17c0-1-0.8-1.8-1.9-1.8H20.7v48.8h22.7v4.8H15.9V10.5
							h40c3.7,0,6.7,2.9,6.7,6.6v45.7C62.5,66.1,59.7,68.9,56.3,68.9z"/>
					</g>
				</g>
			</g>
		</g>
		<g>
			<g>
				<g>
					<g>
						<path class="st30" d="M57.1,15.1H16.2l-0.3-4.7l0,0l35.2-5.3c2.5-0.6,5,1.1,5.5,3.7l0,0.2L57.1,15.1z M18.5,12.7h36.1
							l-0.2-3.4c-0.3-1.3-1.6-2-2.8-1.8L20.1,12l-1.6,0.4V12.7z"/>
					</g>
				</g>
			</g>
		</g>
		<g>
			<g>
				<g>
					<g>
						<path class="st29" d="M29.5,26.1c0.4,0.3,0.6,0.6,0.6,1.1c0,0.3-0.1,0.6-0.3,0.8c-0.2,0.2-0.4,0.4-0.8,0.5
							c0.4,0.1,0.7,0.2,0.9,0.5c0.2,0.3,0.3,0.6,0.3,1c0,0.5-0.2,0.9-0.6,1.2c-0.4,0.3-1,0.4-1.7,0.4h-2.9v-6h2.8
							C28.6,25.7,29.1,25.8,29.5,26.1z M28.4,27.9c0.2-0.1,0.2-0.3,0.2-0.5c0-0.2-0.1-0.4-0.2-0.5c-0.1-0.1-0.4-0.2-0.6-0.2h-1.4
							v1.3h1.4C28.1,28.1,28.3,28,28.4,27.9z M28.6,30.4c0.2-0.1,0.3-0.3,0.3-0.5c0-0.2-0.1-0.4-0.3-0.5c-0.2-0.1-0.4-0.2-0.8-0.2
							h-1.4v1.4h1.4C28.1,30.6,28.4,30.5,28.6,30.4z"/>
					</g>
				</g>
				<g>
					<g>
						<path class="st29" d="M28,31.7h-3v-6.1h2.9c0.7,0,1.2,0.1,1.6,0.4l0,0c0.4,0.3,0.6,0.7,0.6,1.1c0,0.3-0.1,0.6-0.3,0.9
							c-0.2,0.2-0.4,0.3-0.6,0.4c0.3,0.1,0.6,0.3,0.8,0.5c0.2,0.3,0.4,0.6,0.4,1c0,0.5-0.2,1-0.6,1.3C29.3,31.6,28.7,31.7,28,31.7z
							 M25.1,31.6H28c0.7,0,1.3-0.1,1.7-0.4c0.4-0.3,0.6-0.7,0.6-1.2c0-0.4-0.1-0.7-0.3-1c-0.2-0.3-0.5-0.4-0.9-0.5l-0.2,0l0.2-0.1
							c0.3-0.1,0.6-0.2,0.7-0.5c0.2-0.2,0.3-0.5,0.3-0.8c0-0.4-0.2-0.8-0.6-1l0,0c-0.4-0.3-0.9-0.4-1.6-0.4h-2.8V31.6z M27.8,30.6
							h-1.4v-1.5h1.4c0,0,0,0,0,0c0.3,0,0.6,0.1,0.8,0.2c0.2,0.1,0.3,0.3,0.3,0.6c0,0.2-0.1,0.4-0.3,0.6l0,0
							C28.4,30.5,28.2,30.6,27.8,30.6z M26.5,30.5h1.3c0.3,0,0.6-0.1,0.7-0.2v0c0.2-0.1,0.3-0.3,0.3-0.5c0-0.2-0.1-0.4-0.3-0.5
							c-0.2-0.1-0.4-0.2-0.7-0.2c0,0,0,0,0,0h-1.3V30.5z M27.8,28.1h-1.4v-1.4h1.4c0,0,0,0,0,0c0.3,0,0.5,0.1,0.6,0.2
							c0.2,0.1,0.2,0.3,0.2,0.5c0,0.2-0.1,0.4-0.2,0.5C28.3,28.1,28.1,28.1,27.8,28.1z M26.5,28h1.3c0.3,0,0.4-0.1,0.6-0.2l0,0
							c0.1-0.1,0.2-0.2,0.2-0.4c0-0.2-0.1-0.3-0.2-0.4c-0.1-0.1-0.3-0.2-0.5-0.2c0,0,0,0,0,0h-1.3V28z"/>
					</g>
				</g>
			</g>
			<g>
				<g>
					<g>
						<path class="st29" d="M32.8,25.7h1.4v4.8h2.6v1.2h-4V25.7z"/>
					</g>
				</g>
				<g>
					<g>
						<path class="st29" d="M36.9,31.7h-4.1v-6.1h1.5v4.8h2.6V31.7z M32.9,31.6h3.9v-1.1h-2.6v-4.8h-1.3V31.6z"/>
					</g>
				</g>
			</g>
			<g>
				<g>
					<g>
						<path class="st29" d="M43.7,26c0.5,0.3,0.9,0.6,1.2,1.1c0.3,0.5,0.4,1,0.4,1.6c0,0.6-0.1,1.1-0.4,1.6
							c-0.3,0.5-0.7,0.8-1.2,1.1c-0.5,0.3-1.1,0.4-1.7,0.4c-0.6,0-1.2-0.1-1.7-0.4s-0.9-0.6-1.2-1.1c-0.3-0.5-0.4-1-0.4-1.6
							c0-0.6,0.1-1.1,0.4-1.6c0.3-0.5,0.7-0.8,1.2-1.1c0.5-0.3,1.1-0.4,1.7-0.4C42.6,25.6,43.2,25.7,43.7,26z M41.1,27
							c-0.3,0.2-0.5,0.4-0.7,0.7c-0.2,0.3-0.3,0.6-0.3,1c0,0.4,0.1,0.7,0.3,1c0.2,0.3,0.4,0.5,0.7,0.7c0.3,0.2,0.6,0.3,0.9,0.3
							s0.6-0.1,0.9-0.3c0.3-0.2,0.5-0.4,0.7-0.7c0.2-0.3,0.2-0.6,0.2-1c0-0.3-0.1-0.7-0.2-1c-0.2-0.3-0.4-0.5-0.7-0.7
							c-0.3-0.2-0.6-0.3-0.9-0.3S41.4,26.8,41.1,27z"/>
					</g>
				</g>
				<g>
					<g>
						<path class="st29" d="M42,31.8c-0.6,0-1.2-0.1-1.7-0.4c-0.5-0.3-0.9-0.7-1.2-1.1c-0.3-0.5-0.4-1-0.4-1.6
							c0-0.6,0.1-1.1,0.4-1.6c0.3-0.5,0.7-0.9,1.2-1.1c0.5-0.3,1.1-0.4,1.7-0.4c0.6,0,1.2,0.1,1.7,0.4l0,0c0.5,0.3,0.9,0.6,1.2,1.1
							c0.3,0.5,0.4,1,0.4,1.6c0,0.6-0.1,1.1-0.4,1.6c-0.3,0.5-0.7,0.9-1.2,1.1C43.2,31.7,42.6,31.8,42,31.8z M42,25.6
							c-0.6,0-1.2,0.1-1.7,0.4c-0.5,0.3-0.9,0.6-1.2,1.1c-0.3,0.5-0.4,1-0.4,1.5c0,0.6,0.1,1.1,0.4,1.5c0.3,0.5,0.7,0.8,1.2,1.1
							c0.5,0.3,1,0.4,1.6,0.4c0.6,0,1.2-0.1,1.6-0.4c0.5-0.3,0.9-0.6,1.2-1.1c0.3-0.5,0.4-1,0.4-1.5c0-0.6-0.1-1.1-0.4-1.5
							c-0.3-0.5-0.7-0.8-1.2-1.1l0,0C43.2,25.8,42.6,25.6,42,25.6z M42,30.6c-0.3,0-0.7-0.1-1-0.3c-0.3-0.2-0.5-0.4-0.7-0.7
							c-0.2-0.3-0.3-0.6-0.3-1c0-0.4,0.1-0.7,0.3-1c0.2-0.3,0.4-0.5,0.7-0.7l0,0c0.3-0.2,0.6-0.3,1-0.3c0.3,0,0.7,0.1,1,0.3
							c0.3,0.2,0.5,0.4,0.7,0.7c0.2,0.3,0.3,0.6,0.3,1c0,0.4-0.1,0.7-0.3,1c-0.2,0.3-0.4,0.5-0.7,0.7C42.7,30.5,42.4,30.6,42,30.6z
							 M42,26.8c-0.3,0-0.6,0.1-0.9,0.2l0,0c-0.3,0.2-0.5,0.4-0.7,0.7c-0.2,0.3-0.2,0.6-0.2,0.9c0,0.3,0.1,0.7,0.3,0.9
							c0.2,0.3,0.4,0.5,0.7,0.7c0.3,0.2,0.6,0.2,0.9,0.2c0.3,0,0.6-0.1,0.9-0.2c0.3-0.2,0.5-0.4,0.7-0.7c0.2-0.3,0.2-0.6,0.2-0.9
							c0-0.3-0.1-0.6-0.2-0.9c-0.2-0.3-0.4-0.5-0.7-0.7C42.7,26.9,42.4,26.8,42,26.8z"/>
					</g>
				</g>
			</g>
			<g>
				<g>
					<g>
						<path class="st29" d="M51.7,28.6h1.2V31c-0.3,0.2-0.7,0.4-1.2,0.6c-0.5,0.1-0.9,0.2-1.3,0.2c-0.6,0-1.2-0.1-1.7-0.4
							c-0.5-0.3-0.9-0.6-1.2-1.1c-0.3-0.5-0.4-1-0.4-1.6c0-0.6,0.1-1.1,0.4-1.6c0.3-0.5,0.7-0.8,1.2-1.1c0.5-0.3,1.1-0.4,1.7-0.4
							c0.5,0,0.9,0.1,1.3,0.2c0.4,0.2,0.8,0.4,1.1,0.6l-0.8,1c-0.2-0.2-0.5-0.4-0.8-0.5c-0.3-0.1-0.6-0.2-0.9-0.2
							c-0.4,0-0.7,0.1-1,0.3c-0.3,0.2-0.5,0.4-0.7,0.7c-0.2,0.3-0.3,0.6-0.3,1c0,0.4,0.1,0.7,0.3,1c0.2,0.3,0.4,0.5,0.7,0.7
							c0.3,0.2,0.6,0.3,1,0.3c0.2,0,0.4,0,0.6-0.1c0.2-0.1,0.4-0.1,0.6-0.2V28.6z"/>
					</g>
				</g>
				<g>
					<g>
						<path class="st29" d="M50.4,31.8c-0.6,0-1.2-0.1-1.7-0.4c-0.5-0.3-0.9-0.7-1.2-1.1c-0.3-0.5-0.4-1-0.4-1.6
							c0-0.6,0.2-1.1,0.4-1.6c0.3-0.5,0.7-0.9,1.2-1.1c0.5-0.3,1.1-0.4,1.7-0.4c0.5,0,0.9,0.1,1.4,0.2c0.4,0.2,0.8,0.4,1.1,0.7l0,0
							l0,0l-0.8,1l0,0c-0.2-0.2-0.5-0.4-0.8-0.5c-0.3-0.1-0.6-0.2-0.9-0.2c-0.4,0-0.7,0.1-1,0.2c-0.3,0.2-0.5,0.4-0.7,0.7
							c-0.2,0.3-0.2,0.6-0.2,0.9c0,0.3,0.1,0.7,0.3,0.9c0.2,0.3,0.4,0.5,0.7,0.7c0.3,0.2,0.6,0.2,1,0.2c0.2,0,0.4,0,0.6-0.1
							c0.2-0.1,0.4-0.1,0.6-0.2v-1.6h1.3V31l0,0c-0.3,0.2-0.7,0.4-1.2,0.6C51.3,31.7,50.8,31.8,50.4,31.8z M50.5,25.6
							c-0.6,0-1.2,0.1-1.7,0.4c-0.5,0.3-0.9,0.6-1.2,1.1c-0.3,0.5-0.4,1-0.4,1.5c0,0.6,0.1,1.1,0.4,1.5c0.3,0.5,0.7,0.8,1.2,1.1
							c0.5,0.3,1,0.4,1.6,0.4c0.4,0,0.9-0.1,1.3-0.2c0.4-0.1,0.8-0.3,1.1-0.5v-2.2h-1.1v1.6l0,0c-0.2,0.1-0.4,0.2-0.6,0.2
							c-0.2,0.1-0.4,0.1-0.6,0.1c-0.4,0-0.7-0.1-1-0.3c-0.3-0.2-0.5-0.4-0.7-0.7c-0.2-0.3-0.3-0.6-0.3-1c0-0.4,0.1-0.7,0.3-1
							c0.2-0.3,0.4-0.5,0.7-0.7c0.3-0.2,0.6-0.3,1-0.3c0.3,0,0.6,0.1,0.9,0.2c0.3,0.1,0.5,0.3,0.8,0.5l0.7-0.9
							c-0.3-0.2-0.7-0.5-1.1-0.6C51.4,25.7,50.9,25.6,50.5,25.6z"/>
					</g>
				</g>
			</g>
		</g>
	</g>
</g>
</svg>
