<?xml version="1.0" encoding="utf-8"?>
<!-- Generator: Adobe Illustrator 19.1.0, SVG Export Plug-In . SVG Version: 6.00 Build 0)  -->
<svg version="1.1" xmlns="http://www.w3.org/2000/svg" xmlns:xlink="http://www.w3.org/1999/xlink" x="0px" y="0px"
	 viewBox="0 0 80 80" style="enable-background:new 0 0 80 80;" xml:space="preserve">
<style type="text/css">
	.st0{fill:#F9F9F9;}
	.st1{fill:#FFFFFF;}
	.st2{fill:#55B393;}
	.st3{fill:#73D8C5;}
	.st4{fill:#96E1D6;}
	.st5{fill:#AFEFE5;}
	.st6{fill:#FDFDFD;}
	.st7{fill:#DBF5F3;}
	.st8{fill:none;stroke:#DCF5F3;stroke-width:0.5;stroke-miterlimit:10;}
	.st9{fill:url(#SVGID_1_);}
	.st10{fill:none;stroke:#FFFFFF;stroke-miterlimit:10;}
	.st11{fill:#FFFFFF;stroke:#FFFFFF;stroke-miterlimit:10;}
	.st12{fill:none;stroke:#D3D3D3;stroke-miterlimit:10;}
	.st13{fill:#FFFFFF;stroke:#D3D3D3;stroke-width:0.75;stroke-miterlimit:10;}
	.st14{fill:#96E1D6;stroke:#96E1D6;stroke-miterlimit:10;}
	.st15{fill:none;stroke:#D3D3D3;stroke-width:0.75;stroke-miterlimit:10;}
	.st16{fill:#D3D3D3;}
	.st17{fill:none;}
	.st18{fill:#D3D3D3;stroke:#D3D3D3;stroke-width:0.12;stroke-miterlimit:10;}
	.st19{fill:none;stroke:#D3D3D3;stroke-width:2;stroke-miterlimit:10;}
	.st20{fill:#D3D3D3;stroke:#D3D3D3;stroke-miterlimit:10;}
	.st21{fill:#D3D3D3;stroke:#D3D3D3;stroke-width:0.25;stroke-miterlimit:10;}
	.st22{fill:none;stroke:#FFFFFF;stroke-width:2;stroke-miterlimit:10;}
	.st23{fill:none;stroke:#FFFFFF;stroke-width:6;stroke-miterlimit:10;}
	.st24{fill:none;stroke:#FFFFFF;stroke-width:3;stroke-miterlimit:10;}
	.st25{fill:none;stroke:#FFFFFF;stroke-width:4;stroke-miterlimit:10;}
	.st26{fill:#FFFFFF;stroke:#D3D3D3;stroke-width:0.12;stroke-miterlimit:10;}
	.st27{fill:#969696;stroke:#D3D3D3;stroke-miterlimit:10;}
	.st28{fill:#A1D7CA;}
	.st29{fill:#4CBFA0;}
	.st30{fill:#969696;}
	.st31{fill:#FFFFFF;stroke:#FFFFFF;stroke-width:0.5;stroke-miterlimit:10;}
	.st32{fill:none;stroke:#969696;stroke-width:3;stroke-miterlimit:10;}
	.st33{fill:#C1C1C1;}
</style>
<g id="Layer_1">
</g>
<g id="Layer_2">
	<g>
		<g>
			<polygon class="st28" points="48.2,33.4 41.7,33.4 42,12.9 49.9,14.1 			"/>
		</g>
		<g>
			<polygon class="st29" points="48.2,13.5 42,13.5 42.4,33.3 42.4,31.9 			"/>
		</g>
		<g>
			<polygon class="st29" points="59.7,18.9 56.7,18.1 56,13.5 58.5,10.6 61.8,9.2 63.3,8.5 63.3,12.4 61.8,17.4 			"/>
		</g>
		<g>
			<polygon class="st28" points="34.9,8.5 39,33.4 28.8,33.4 24.6,9.2 			"/>
		</g>
		<g>
			<polygon class="st28" points="26.2,43.4 57,43.4 57,35.9 23.7,35.9 			"/>
		</g>
		<g>
			<g>
				<g>
					<g>
						<g>
							<path class="st30" d="M49.1,35.2L40.6,35l1-23.1l8.5,0.4L49.1,35.2z M42.4,33.3l4.9,0.1L48.2,14l-4.9-0.2L42.4,33.3z"/>
						</g>
					</g>
				</g>
			</g>
			<g>
				<g>
					<g>
						<g>
							<path class="st30" d="M49.9,14.1l-8.2-0.4l3-7.7c0.2-0.5,0.6-0.8,1.2-0.8c0.6,0,1,0.4,1.2,0.9L49.9,14.1z M44.3,12l3,0.1
								L45.9,8L44.3,12z"/>
						</g>
					</g>
				</g>
			</g>
			<g>
				<g>
					<g>
						<g>
							<path class="st30" d="M41.6,73.8c-1,0-2-0.3-2.8-1l-16-12.1V33.4h37.5v28l-16,11.6C43.6,73.5,42.6,73.8,41.6,73.8z
								 M24.6,59.8l15.3,11.6c1,0.8,2.4,0.8,3.4,0l15.2-11V35.2H24.6V59.8z"/>
						</g>
					</g>
				</g>
			</g>
			<g>
				<g>
					<g>
						<g>
							<path class="st30" d="M54.2,35.2h-6.9l8.4-17h5.5L54.2,35.2z M50.2,33.4H53l5.5-13.4h-1.6L50.2,33.4z"/>
						</g>
					</g>
				</g>
			</g>
			<g>
				<g>
					<g>
						<g>
							<path class="st30" d="M58.8,19.9c-2.1,0-3.9-2-3.9-4.5c0-2.3,1.8-5.5,4-5.9c2.1-0.4,2.4-1.2,2.5-1.6c0.1-0.2,0.2-0.6,0.6-0.8
								L62.4,7l0.4,0.2c1.8,0.8,2.1,4.4,0.9,8.3C62.9,17.7,60.9,19.9,58.8,19.9z M62.5,9.7c-0.6,0.7-1.5,1.3-3.2,1.6
								c-1.1,0.2-2.5,2.5-2.5,4.1c0,1.5,0.9,2.7,2.1,2.7c1.1,0,2.6-1.5,3.1-3.2l0,0C62.7,12.5,62.7,10.7,62.5,9.7z"/>
						</g>
					</g>
				</g>
			</g>
			<g>
				<g>
					<g>
						<g>
							<path class="st30" d="M40.3,35.2H27.3L23.8,9.9c-0.1-1,0.6-2,1.6-2.1l9.1-1.3c0.5-0.1,1,0.1,1.4,0.4c0.4,0.3,0.7,0.8,0.7,1.3
								l0.4,2.7L40.3,35.2z M28.8,33.4h9.4L34.9,8.5l-9.3,1.2c0,0-0.1,0-0.1,0.1L28.8,33.4z"/>
						</g>
					</g>
				</g>
			</g>
			<g>
				<g>
					<g>
						<g>
							
								<rect x="32.9" y="8.9" transform="matrix(0.1381 0.9904 -0.9904 0.1381 40.2692 -23.8604)" class="st30" width="1.8" height="4.7"/>
						</g>
					</g>
				</g>
			</g>
			<g>
				<g>
					<g>
						<g>
							
								<rect x="33.6" y="13.8" transform="matrix(0.1381 0.9904 -0.9904 0.1381 45.7765 -20.2654)" class="st30" width="1.8" height="4.7"/>
						</g>
					</g>
				</g>
			</g>
			<g>
				<g>
					<g>
						<g>
							
								<rect x="34.3" y="18.8" transform="matrix(0.1381 0.9904 -0.9904 0.1381 51.285 -16.6693)" class="st30" width="1.8" height="4.7"/>
						</g>
					</g>
				</g>
			</g>
			<g>
				<g>
					<g>
						<g>
							
								<rect x="35" y="23.8" transform="matrix(0.1381 0.9904 -0.9904 0.1381 56.7946 -13.0744)" class="st30" width="1.8" height="4.7"/>
						</g>
					</g>
				</g>
			</g>
			<g>
				<g>
					<g>
						<g>
							
								<rect x="35.7" y="28.7" transform="matrix(0.1381 0.9904 -0.9904 0.1381 62.3031 -9.4784)" class="st30" width="1.8" height="4.7"/>
						</g>
					</g>
				</g>
			</g>
		</g>
		<g>
			<g>
				<g>
					<g>
						<path class="st30" d="M41.6,75.3c-1.3,0-2.6-0.4-3.7-1.3L21.3,61.5V31.9h40.5v30.2l-16.6,12C44.2,74.9,42.9,75.3,41.6,75.3z
							 M26.2,59.1l14.7,11.2c0.5,0.4,1.1,0.4,1.6,0L57,59.7v-23H26.2V59.1z"/>
					</g>
				</g>
			</g>
		</g>
		<g>
			<line class="st29" x1="47.8" y1="12.9" x2="42.4" y2="13"/>
		</g>
	</g>
</g>
</svg>
