<?xml version="1.0" encoding="utf-8"?>
<!-- Generator: Adobe Illustrator 19.1.0, SVG Export Plug-In . SVG Version: 6.00 Build 0)  -->
<svg version="1.1" xmlns="http://www.w3.org/2000/svg" xmlns:xlink="http://www.w3.org/1999/xlink" x="0px" y="0px"
	 viewBox="0 0 80 80" style="enable-background:new 0 0 80 80;" xml:space="preserve">
<style type="text/css">
	.st0{fill:#F9F9F9;}
	.st1{fill:#FFFFFF;}
	.st2{fill:#55B393;}
	.st3{fill:#73D8C5;}
	.st4{fill:#96E1D6;}
	.st5{fill:#AFEFE5;}
	.st6{fill:#FDFDFD;}
	.st7{fill:#DBF5F3;}
	.st8{fill:none;stroke:#DCF5F3;stroke-width:0.5;stroke-miterlimit:10;}
	.st9{fill:url(#SVGID_1_);}
	.st10{fill:none;stroke:#FFFFFF;stroke-miterlimit:10;}
	.st11{fill:#FFFFFF;stroke:#FFFFFF;stroke-miterlimit:10;}
	.st12{fill:none;stroke:#D3D3D3;stroke-miterlimit:10;}
	.st13{fill:#FFFFFF;stroke:#D3D3D3;stroke-width:0.75;stroke-miterlimit:10;}
	.st14{fill:#96E1D6;stroke:#96E1D6;stroke-miterlimit:10;}
	.st15{fill:none;stroke:#D3D3D3;stroke-width:0.75;stroke-miterlimit:10;}
	.st16{fill:#D3D3D3;}
	.st17{fill:none;}
	.st18{fill:#D3D3D3;stroke:#D3D3D3;stroke-width:0.12;stroke-miterlimit:10;}
	.st19{fill:none;stroke:#D3D3D3;stroke-width:2;stroke-miterlimit:10;}
	.st20{fill:#D3D3D3;stroke:#D3D3D3;stroke-miterlimit:10;}
	.st21{fill:#D3D3D3;stroke:#D3D3D3;stroke-width:0.25;stroke-miterlimit:10;}
	.st22{fill:none;stroke:#FFFFFF;stroke-width:2;stroke-miterlimit:10;}
	.st23{fill:none;stroke:#FFFFFF;stroke-width:6;stroke-miterlimit:10;}
	.st24{fill:none;stroke:#FFFFFF;stroke-width:3;stroke-miterlimit:10;}
	.st25{fill:none;stroke:#FFFFFF;stroke-width:4;stroke-miterlimit:10;}
	.st26{fill:#FFFFFF;stroke:#D3D3D3;stroke-width:0.12;stroke-miterlimit:10;}
	.st27{fill:#969696;stroke:#D3D3D3;stroke-miterlimit:10;}
	.st28{fill:#A1D7CA;}
	.st29{fill:#4CBFA0;}
	.st30{fill:#969696;}
	.st31{fill:#FFFFFF;stroke:#FFFFFF;stroke-width:0.5;stroke-miterlimit:10;}
	.st32{fill:none;stroke:#969696;stroke-width:3;stroke-miterlimit:10;}
	.st33{fill:#C1C1C1;}
</style>
<g id="Layer_1">
</g>
<g id="Layer_2">
	<g>
		<g>
			<g>
				<g>
					<g>
						<path class="st33" d="M40.1,55.7l11.6-11.8l5.2-5.6l0,0c1.6-1.6,2.5-3.8,2.5-6.1c0-2.3-0.9-4.5-2.5-6.1
							c-3.4-3.3-8.8-3.3-12.1,0l-4.8,4.3l-4.4-4.3c-3.3-3.4-8.8-3.4-12.2,0c-1.6,1.6-2.5,3.8-2.5,6.1c0,2.3,0.9,4.5,2.5,6.1l5.2,5.6
							L40.1,55.7z M39.9,34.7c1.4,1.7,2.1,2.7,2.5,3.2c0.1,0.1,0.1,0.2,0.2,0.3c0,0.1,0.1,0.1,0.1,0.1c0.1,0.2,0.2,0.4,0.2,0.6
							c0,0,0,0,0,0.1c0,0,0,0,0,0.1c0,0.3,0,0.5-0.1,0.6c0,0,0,0,0,0c0,0,0,0.1,0,0.1c0,0,0,0.1,0,0.1c-0.1,0.2-0.1,0.4-0.2,0.5
							c0,0.1-0.1,0.1-0.1,0.1c-0.1,0.1-0.2,0.2-0.3,0.3C42,40.9,41.9,41,41.8,41c-0.1,0.1-0.1,0.1-0.2,0.2c-0.1,0.1-0.2,0.1-0.3,0.2
							c-0.1,0-0.1,0.1-0.2,0.1c-0.1,0-0.2,0.1-0.3,0.1c-0.1,0-0.1,0-0.2,0c-0.1,0-0.2,0.1-0.3,0.1c0,0-0.1,0-0.1,0
							c-0.2,0-0.3,0-0.4,0v0h0h0c-0.4,0-0.9-0.1-1.4-0.3c0,0-0.1-0.1-0.1-0.1c-0.1-0.1-0.2-0.1-0.3-0.2c-0.1,0-0.1-0.1-0.2-0.2
							c-0.1-0.1-0.1-0.1-0.2-0.2c-0.1-0.1-0.2-0.3-0.3-0.4c0,0,0,0,0,0c-0.2-0.3-0.2-0.5-0.2-0.6c0,0,0,0,0,0l0,0
							c-0.3-1,0.2-1.5,0.2-1.5c0,0,0,0,0,0c0.1-0.1,0.2-0.3,0.3-0.4C38.5,36.3,39.9,34.7,39.9,34.7z M24.8,36.8
							c-1.2-1.2-1.9-2.9-1.9-4.6c0-1.7,0.7-3.4,1.9-4.6c2.6-2.5,6.7-2.5,9.2,0l4.5,4.5c-0.5,0.6-1.5,1.9-1.9,2.5
							c-0.2,0.3-0.4,0.5-0.6,0.8c-0.8,1-1.7,2.1-1.7,3.6c0,3.4,2.6,5.2,5.2,5.3v0h0.1c0.1,0,0.1,0,0.2,0v0h0v0c0.1,0,0.1,0,0.2,0
							h0.2v0c2.6-0.2,5-2,5-5.3c0-1.6-0.9-2.7-1.7-3.6c-0.2-0.3-0.5-0.6-0.6-0.8c-0.4-0.6-1.4-1.8-1.9-2.5l4.9-4.5l0,0
							c2.5-2.6,6.7-2.6,9.2,0c1.2,1.2,1.9,2.9,1.9,4.6c0,1.7-0.7,3.4-1.9,4.6l-5.2,5.7L40.1,52.8L30,42.4L24.8,36.8L24.8,36.8z"/>
					</g>
				</g>
			</g>
			<g>
				<g>
					<g>
						<path class="st33" d="M40.1,56.1L28.3,44.1l-5.2-5.6c-1.7-1.7-2.6-3.9-2.6-6.3c0-2.4,0.9-4.6,2.6-6.3c3.5-3.5,9.1-3.4,12.6,0
							l4.2,4.1l4.6-4.2c3.4-3.4,9.1-3.5,12.6,0c1.7,1.7,2.6,3.9,2.6,6.3c0,2.4-0.9,4.6-2.6,6.3l-5.2,5.7L40.1,56.1z M29.4,23.9
							c-2.1,0-4.2,0.8-5.9,2.4c-1.6,1.6-2.4,3.6-2.4,5.9c0,2.2,0.9,4.3,2.4,5.9l5.2,5.6l11.4,11.6l11.4-11.6l5.2-5.6
							c1.6-1.6,2.4-3.7,2.4-5.9c0-2.2-0.9-4.3-2.4-5.9c-3.2-3.2-8.5-3.2-11.7,0l-5,4.5l-4.6-4.5C33.7,24.7,31.6,23.9,29.4,23.9z
							 M40.1,53.2L29.8,42.7L24.6,37c-1.3-1.3-2-3-2-4.8c0-1.8,0.7-3.5,2-4.8c2.7-2.7,7-2.6,9.7,0L39,32l-0.2,0.2
							c-0.4,0.5-1.5,1.9-1.9,2.5c-0.2,0.3-0.4,0.6-0.7,0.9c-0.7,0.9-1.6,2-1.6,3.4c0,3.3,2.5,4.9,4.9,5l0.2,0l0.5,0
							c2.4-0.2,4.8-1.8,4.8-5c0-1.5-0.8-2.5-1.6-3.4c-0.2-0.3-0.5-0.6-0.7-0.9c-0.3-0.5-1.2-1.6-1.9-2.4l-0.2-0.2l5.1-4.7
							c1.3-1.3,3-2,4.8-2h0c1.8,0,3.5,0.7,4.8,2c1.3,1.3,2,3,2,4.8c0,1.8-0.7,3.5-2,4.8l-5.2,5.7L40.1,53.2z M29.4,25.9
							c-1.6,0-3.2,0.6-4.4,1.8c-1.2,1.2-1.8,2.7-1.8,4.4c0,1.7,0.6,3.2,1.8,4.4l0.1,0.1l5.1,5.6l9.9,10.1L50,42.2l5.2-5.7
							c1.2-1.2,1.8-2.8,1.8-4.4c0-1.7-0.7-3.2-1.8-4.4c-1.2-1.2-2.7-1.8-4.4-1.8h0c-1.7,0-3.2,0.7-4.4,1.8l-4.8,4.3
							c0.4,0.5,1.3,1.7,1.7,2.3c0.2,0.3,0.4,0.5,0.6,0.8c0.8,1,1.7,2.1,1.7,3.8c0,3.4-2.6,5.3-5,5.5v0l-0.6,0c-0.1,0-0.1,0-0.1,0
							l-0.6,0c-2.5-0.2-5.2-2-5.2-5.6c0-1.7,0.9-2.8,1.7-3.8c0.2-0.3,0.4-0.6,0.6-0.8c0.4-0.5,1.3-1.7,1.8-2.3l-4.4-4.3
							C32.6,26.6,31,25.9,29.4,25.9z M39.9,42L39.9,42c-0.6,0-1.1-0.1-1.6-0.4c0,0-0.1,0-0.1-0.1c-0.2-0.1-0.3-0.2-0.4-0.3
							c-0.1-0.1-0.1-0.1-0.2-0.2c-0.1-0.1-0.1-0.1-0.2-0.2c-0.1-0.1-0.2-0.3-0.3-0.4c-0.1-0.2-0.2-0.4-0.3-0.7l0-0.1
							C36.5,38.6,37,38.1,37,38c0.1-0.1,0.2-0.3,0.3-0.4c1-1.4,2.3-3,2.3-3.1l0.2-0.3l0.2,0.3c1.4,1.6,2.1,2.7,2.5,3.2
							c0.1,0.1,0.1,0.2,0.2,0.3l0.1,0.1c0.1,0.2,0.2,0.4,0.2,0.7l0,0.1c0,0,0,0.1,0,0.1c0,0.3-0.1,0.6-0.1,0.7l0,0.1
							c0,0,0,0.1,0,0.1c-0.1,0.2-0.2,0.4-0.2,0.6c0,0,0,0.1-0.1,0.1c-0.1,0.2-0.2,0.3-0.3,0.4c-0.1,0.1-0.1,0.1-0.2,0.2L42,41.3
							c-0.1,0-0.1,0.1-0.2,0.1c-0.1,0.1-0.2,0.1-0.3,0.2l-0.1,0c0,0-0.1,0-0.1,0.1c-0.1,0-0.2,0.1-0.3,0.1c-0.1,0-0.1,0-0.2,0
							c-0.1,0-0.2,0.1-0.4,0.1l-0.1,0C40.1,42,39.9,42,39.9,42z M40.2,41.4l0.1,0.3L40.2,41.4c0.2,0,0.3,0,0.4-0.1
							c0.1,0,0.1,0,0.1,0c0.1,0,0.2-0.1,0.3-0.1l0.2-0.1c0.1,0,0.2-0.1,0.2-0.1c0,0,0.1-0.1,0.1-0.1l0.3,0.2l-0.2-0.2
							c0,0,0.1-0.1,0.1-0.1c0.1-0.1,0.2-0.2,0.2-0.3l0-0.1c0.1-0.2,0.2-0.3,0.2-0.5l0-0.1c0,0,0,0,0,0s0,0,0-0.1
							c0-0.1,0.1-0.3,0.1-0.6l0-0.1c0-0.2-0.1-0.4-0.1-0.5l-0.1-0.1c0-0.1-0.1-0.2-0.2-0.3c-0.3-0.4-0.9-1.4-2.2-2.9
							c-0.4,0.5-1.3,1.7-2.1,2.7c-0.1,0.1-0.2,0.3-0.2,0.4l-0.1,0.1c0,0-0.3,0.4-0.1,1.2l0,0.1c0,0.1,0.1,0.3,0.2,0.4
							c0.1,0.1,0.1,0.2,0.2,0.3c0.1,0.1,0.1,0.1,0.2,0.2c0.1,0.1,0.1,0.1,0.2,0.1c0.1,0.1,0.2,0.1,0.3,0.2c0.1,0,0.1,0.1,0.1,0.1
							c0.4,0.2,0.9,0.3,1.3,0.3C39.9,41.4,40,41.4,40.2,41.4z"/>
					</g>
				</g>
			</g>
		</g>
		<g>
			<g>
				<g>
					<g>
						<path class="st33" d="M39.9,74.3l-2.7-2.1c-3.1-2.4-12.6-9.8-16.1-13.4C14.5,51.9,7.8,44.8,7.8,35c0-8,3.3-15.7,9.2-21.5
							c5.8-5.7,13.6-9,21.9-9.3l3.8,0l0,0.1C59,5.7,72,19.1,72,35c0,9.8-6.8,16.9-13.3,23.8c-3.6,3.8-14.1,11.9-16.2,13.5L39.9,74.3
							z M40,9l-1,0c-7.2,0.3-13.8,3.1-18.8,7.9c-5,4.9-7.7,11.3-7.7,18c0,7.9,5.6,13.7,12,20.5c2.6,2.7,9.8,8.5,15.3,12.8
							c2.2-1.7,12.1-9.4,15.3-12.8c6.4-6.8,12-12.6,12-20.5C67.2,21.1,55.3,9.4,40.6,9L40,9z"/>
					</g>
				</g>
			</g>
		</g>
	</g>
</g>
</svg>
