<?xml version="1.0" encoding="utf-8"?>
<!-- Generator: Adobe Illustrator 19.1.0, SVG Export Plug-In . SVG Version: 6.00 Build 0)  -->
<svg version="1.1" xmlns="http://www.w3.org/2000/svg" xmlns:xlink="http://www.w3.org/1999/xlink" x="0px" y="0px"
	 viewBox="0 0 80 80" style="enable-background:new 0 0 80 80;" xml:space="preserve">
<style type="text/css">
	.st0{fill:#F9F9F9;}
	.st1{fill:#FFFFFF;}
	.st2{fill:#55B393;}
	.st3{fill:#73D8C5;}
	.st4{fill:#96E1D6;}
	.st5{fill:#AFEFE5;}
	.st6{fill:#FDFDFD;}
	.st7{fill:#DBF5F3;}
	.st8{fill:none;stroke:#DCF5F3;stroke-width:0.5;stroke-miterlimit:10;}
	.st9{fill:url(#SVGID_1_);}
	.st10{fill:none;stroke:#FFFFFF;stroke-miterlimit:10;}
	.st11{fill:#FFFFFF;stroke:#FFFFFF;stroke-miterlimit:10;}
	.st12{fill:none;stroke:#D3D3D3;stroke-miterlimit:10;}
	.st13{fill:#FFFFFF;stroke:#D3D3D3;stroke-width:0.75;stroke-miterlimit:10;}
	.st14{fill:#96E1D6;stroke:#96E1D6;stroke-miterlimit:10;}
	.st15{fill:none;stroke:#D3D3D3;stroke-width:0.75;stroke-miterlimit:10;}
	.st16{fill:#D3D3D3;}
	.st17{fill:none;}
	.st18{fill:#D3D3D3;stroke:#D3D3D3;stroke-width:0.12;stroke-miterlimit:10;}
	.st19{fill:none;stroke:#D3D3D3;stroke-width:2;stroke-miterlimit:10;}
	.st20{fill:#D3D3D3;stroke:#D3D3D3;stroke-miterlimit:10;}
	.st21{fill:#D3D3D3;stroke:#D3D3D3;stroke-width:0.25;stroke-miterlimit:10;}
	.st22{fill:none;stroke:#FFFFFF;stroke-width:2;stroke-miterlimit:10;}
	.st23{fill:none;stroke:#FFFFFF;stroke-width:6;stroke-miterlimit:10;}
	.st24{fill:none;stroke:#FFFFFF;stroke-width:3;stroke-miterlimit:10;}
	.st25{fill:none;stroke:#FFFFFF;stroke-width:4;stroke-miterlimit:10;}
	.st26{fill:#FFFFFF;stroke:#D3D3D3;stroke-width:0.12;stroke-miterlimit:10;}
	.st27{fill:#969696;stroke:#D3D3D3;stroke-miterlimit:10;}
	.st28{fill:#A1D7CA;}
	.st29{fill:#4CBFA0;}
	.st30{fill:#969696;}
	.st31{fill:#FFFFFF;stroke:#FFFFFF;stroke-width:0.5;stroke-miterlimit:10;}
	.st32{fill:none;stroke:#969696;stroke-width:3;stroke-miterlimit:10;}
	.st33{fill:#C1C1C1;}
</style>
<g id="Layer_1">
</g>
<g id="Layer_2">
	<g>
		<g>
			<polygon class="st29" points="39.8,32.3 33.3,25.8 27.8,24.9 22.6,29.8 22,33.4 24.6,38.2 40.1,55.5 39.9,42.2 38.2,41.8 
				35.7,41 36.4,34.6 			"/>
		</g>
		<g>
			<polygon class="st1" points="39.8,44.2 39.8,32.3 42.6,37.9 42.7,41.8 			"/>
		</g>
		<g>
			<polygon class="st1" points="39.9,33.4 39.9,43.4 35.7,39.9 			"/>
		</g>
		<g>
			<polyline class="st28" points="41.6,32.3 47.5,26.4 54.4,24.9 57.6,31.1 56.6,38.2 40.1,53.4 39.9,42.2 44.5,41.5 44.1,38.3 
				40.7,33.4 41.6,32.3 			"/>
		</g>
		<g>
			<g>
				<g>
					<g>
						<g>
							<path class="st30" d="M40.1,55.9l11.6-11.8l5.2-5.6l0,0c1.6-1.6,2.5-3.8,2.5-6.1c0-2.3-0.9-4.5-2.5-6.1
								c-3.4-3.3-8.8-3.3-12.1,0l-4.8,4.3l-4.4-4.3c-3.3-3.4-8.8-3.4-12.2,0c-1.6,1.6-2.5,3.8-2.5,6.1c0,2.3,0.9,4.5,2.5,6.1
								l5.2,5.6L40.1,55.9z M39.9,34.9c1.4,1.7,2.1,2.7,2.5,3.2c0.1,0.1,0.1,0.2,0.2,0.3c0,0.1,0.1,0.1,0.1,0.1
								c0.1,0.2,0.2,0.4,0.2,0.6c0,0,0,0,0,0.1c0,0,0,0,0,0.1c0,0.3,0,0.5-0.1,0.6c0,0,0,0,0,0c0,0,0,0.1,0,0.1c0,0,0,0.1,0,0.1
								c-0.1,0.2-0.1,0.4-0.2,0.5c0,0.1-0.1,0.1-0.1,0.1c-0.1,0.1-0.2,0.2-0.3,0.3c-0.1,0.1-0.1,0.1-0.2,0.2
								c-0.1,0.1-0.1,0.1-0.2,0.2c-0.1,0.1-0.2,0.1-0.3,0.2c-0.1,0-0.1,0.1-0.2,0.1c-0.1,0-0.2,0.1-0.3,0.1c-0.1,0-0.1,0-0.2,0
								c-0.1,0-0.2,0.1-0.3,0.1c0,0-0.1,0-0.1,0c-0.2,0-0.3,0-0.4,0v0h0h0c-0.4,0-0.9-0.1-1.4-0.3c0,0-0.1-0.1-0.1-0.1
								c-0.1-0.1-0.2-0.1-0.3-0.2c-0.1,0-0.1-0.1-0.2-0.2c-0.1-0.1-0.1-0.1-0.2-0.2c-0.1-0.1-0.2-0.3-0.3-0.4c0,0,0,0,0,0
								c-0.2-0.3-0.2-0.5-0.2-0.6c0,0,0,0,0,0l0,0c-0.3-1,0.2-1.5,0.2-1.5c0,0,0,0,0,0c0.1-0.1,0.2-0.3,0.3-0.4
								C38.5,36.5,39.9,34.9,39.9,34.9z M24.8,37c-1.2-1.2-1.9-2.9-1.9-4.6c0-1.7,0.7-3.4,1.9-4.6c2.6-2.5,6.7-2.5,9.2,0l4.5,4.5
								c-0.5,0.6-1.5,1.9-1.9,2.5c-0.2,0.3-0.4,0.5-0.6,0.8c-0.8,1-1.7,2.1-1.7,3.6c0,3.4,2.6,5.2,5.2,5.3v0h0.1c0.1,0,0.1,0,0.2,0
								v0h0v0c0.1,0,0.1,0,0.2,0h0.2v0c2.6-0.2,5-2,5-5.3c0-1.6-0.9-2.7-1.7-3.6c-0.2-0.3-0.5-0.6-0.6-0.8c-0.4-0.6-1.4-1.8-1.9-2.5
								l4.9-4.5l0,0c2.5-2.6,6.7-2.6,9.2,0c1.2,1.2,1.9,2.9,1.9,4.6c0,1.7-0.7,3.4-1.9,4.6l-5.2,5.7L40.1,52.9L30,42.6L24.8,37
								L24.8,37z"/>
						</g>
					</g>
				</g>
				<g>
					<g>
						<g>
							<path class="st30" d="M40.1,56.3L28.3,44.3l-5.2-5.6c-1.7-1.7-2.6-3.9-2.6-6.3c0-2.4,0.9-4.6,2.6-6.3c3.5-3.5,9.1-3.4,12.6,0
								l4.2,4.1l4.6-4.2c3.4-3.4,9.1-3.5,12.6,0c1.7,1.7,2.6,3.9,2.6,6.3c0,2.4-0.9,4.6-2.6,6.3l-5.2,5.7L40.1,56.3z M29.4,24.1
								c-2.1,0-4.2,0.8-5.9,2.4c-1.6,1.6-2.4,3.6-2.4,5.9c0,2.2,0.9,4.3,2.4,5.9l5.2,5.6l11.4,11.6l11.4-11.6l5.2-5.6
								c1.6-1.6,2.4-3.7,2.4-5.9c0-2.2-0.9-4.3-2.4-5.9c-3.2-3.2-8.5-3.2-11.7,0l-5,4.5l-4.6-4.5C33.7,24.9,31.6,24.1,29.4,24.1z
								 M40.1,53.4L29.8,42.8l-5.2-5.7c-1.3-1.3-2-3-2-4.8c0-1.8,0.7-3.5,2-4.8c2.7-2.7,7-2.6,9.7,0l4.7,4.6l-0.2,0.2
								c-0.4,0.5-1.5,1.9-1.9,2.5c-0.2,0.3-0.4,0.6-0.7,0.9c-0.7,0.9-1.6,2-1.6,3.4c0,3.3,2.5,4.9,4.9,5l0.2,0l0.5,0
								c2.4-0.2,4.8-1.8,4.8-5c0-1.5-0.8-2.5-1.6-3.4c-0.2-0.3-0.5-0.6-0.7-0.9c-0.3-0.5-1.2-1.6-1.9-2.4l-0.2-0.2l5.1-4.7
								c1.3-1.3,3-2,4.8-2h0c1.8,0,3.5,0.7,4.8,2c1.3,1.3,2,3,2,4.8c0,1.8-0.7,3.5-2,4.8l-5.2,5.7L40.1,53.4z M29.4,26.1
								c-1.6,0-3.2,0.6-4.4,1.8c-1.2,1.2-1.8,2.7-1.8,4.4c0,1.7,0.6,3.2,1.8,4.4l0.1,0.1l5.1,5.6l9.9,10.1L50,42.4l5.2-5.7
								c1.2-1.2,1.8-2.8,1.8-4.4c0-1.7-0.7-3.2-1.8-4.4c-1.2-1.2-2.7-1.8-4.4-1.8h0c-1.7,0-3.2,0.7-4.4,1.8l-4.8,4.3
								c0.4,0.5,1.3,1.7,1.7,2.3c0.2,0.3,0.4,0.5,0.6,0.8c0.8,1,1.7,2.1,1.7,3.8c0,3.4-2.6,5.3-5,5.5v0l-0.6,0c-0.1,0-0.1,0-0.1,0
								l-0.6,0c-2.5-0.2-5.2-2-5.2-5.6c0-1.7,0.9-2.8,1.7-3.8c0.2-0.3,0.4-0.6,0.6-0.8c0.4-0.5,1.3-1.7,1.8-2.3L33.8,28
								C32.6,26.8,31,26.1,29.4,26.1z M39.9,42.2L39.9,42.2c-0.6,0-1.1-0.1-1.6-0.4c0,0-0.1,0-0.1-0.1c-0.2-0.1-0.3-0.2-0.4-0.3
								c-0.1-0.1-0.1-0.1-0.2-0.2c-0.1-0.1-0.1-0.1-0.2-0.2c-0.1-0.1-0.2-0.3-0.3-0.4c-0.1-0.2-0.2-0.4-0.3-0.7l0-0.1
								c-0.3-1.1,0.2-1.7,0.2-1.7c0.1-0.1,0.2-0.3,0.3-0.4c1-1.4,2.3-3,2.3-3.1l0.2-0.3l0.2,0.3c1.4,1.6,2.1,2.7,2.5,3.2
								c0.1,0.1,0.1,0.2,0.2,0.3l0.1,0.1c0.1,0.2,0.2,0.4,0.2,0.7l0,0.1c0,0,0,0.1,0,0.1c0,0.3-0.1,0.6-0.1,0.7l0,0.1
								c0,0,0,0.1,0,0.1c-0.1,0.2-0.2,0.4-0.2,0.6c0,0,0,0.1-0.1,0.1c-0.1,0.2-0.2,0.3-0.3,0.4c-0.1,0.1-0.1,0.1-0.2,0.2L42,41.5
								c-0.1,0-0.1,0.1-0.2,0.1c-0.1,0.1-0.2,0.1-0.3,0.2l-0.1,0c0,0-0.1,0-0.1,0.1c-0.1,0-0.2,0.1-0.3,0.1c-0.1,0-0.1,0-0.2,0
								c-0.1,0-0.2,0.1-0.4,0.1l-0.1,0C40.1,42.2,39.9,42.2,39.9,42.2z M40.2,41.6l0.1,0.3L40.2,41.6c0.2,0,0.3,0,0.4-0.1
								c0.1,0,0.1,0,0.1,0c0.1,0,0.2-0.1,0.3-0.1l0.2-0.1c0.1,0,0.2-0.1,0.2-0.1c0,0,0.1-0.1,0.1-0.1l0.3,0.2L41.7,41
								c0,0,0.1-0.1,0.1-0.1c0.1-0.1,0.2-0.2,0.2-0.3l0-0.1c0.1-0.2,0.2-0.3,0.2-0.5l0-0.1c0,0,0,0,0,0s0,0,0-0.1
								c0-0.1,0.1-0.3,0.1-0.6l0-0.1c0-0.2-0.1-0.4-0.1-0.5l-0.1-0.1c0-0.1-0.1-0.2-0.2-0.3c-0.3-0.4-0.9-1.4-2.2-2.9
								c-0.4,0.5-1.3,1.7-2.1,2.7c-0.1,0.1-0.2,0.3-0.2,0.4l-0.1,0.1c0,0-0.3,0.4-0.1,1.2l0,0.1c0,0.1,0.1,0.3,0.2,0.4
								c0.1,0.1,0.1,0.2,0.2,0.3c0.1,0.1,0.1,0.1,0.2,0.2c0.1,0.1,0.1,0.1,0.2,0.1c0.1,0.1,0.2,0.1,0.3,0.2c0.1,0,0.1,0.1,0.1,0.1
								c0.4,0.2,0.9,0.3,1.3,0.3C39.9,41.6,40,41.6,40.2,41.6z"/>
						</g>
					</g>
				</g>
			</g>
			<g>
				<g>
					<g>
						<g>
							<path class="st30" d="M39.9,74.5l-2.7-2.1c-3.1-2.4-12.6-9.8-16.1-13.4C14.5,52.1,7.8,45,7.8,35.2c0-8,3.3-15.7,9.2-21.5
								c5.8-5.7,13.6-9,21.9-9.3l3.8,0l0,0.1C59,5.9,72,19.3,72,35.2c0,9.8-6.8,16.9-13.3,23.8c-3.6,3.8-14.1,11.9-16.2,13.5
								L39.9,74.5z M40,9.2l-1,0c-7.2,0.3-13.8,3.1-18.8,7.9c-5,4.9-7.7,11.3-7.7,18c0,7.9,5.6,13.7,12,20.5
								c2.6,2.7,9.8,8.5,15.3,12.8C42.1,66.7,52,59,55.2,55.6c6.4-6.8,12-12.6,12-20.5c0-13.9-11.9-25.5-26.6-25.9L40,9.2z"/>
						</g>
					</g>
				</g>
			</g>
		</g>
	</g>
</g>
</svg>
