<svg width="145" height="158" viewBox="0 0 145 158" fill="none" xmlns="http://www.w3.org/2000/svg">
<path d="M73.0666 117.12L99.6343 89.9777L111.41 77.0529C115.144 73.3191 117.155 68.2928 117.155 63.1228C117.155 57.8093 115 52.9266 111.267 49.1928C103.512 41.5815 91.0178 41.5815 83.4065 49.1928L72.3486 59.1018L62.296 49.1928C54.6847 41.4379 42.0471 41.4379 34.4358 49.0492C30.702 52.783 28.6915 57.6657 28.5479 62.9792C28.5479 68.2928 30.5584 73.1755 34.2922 76.9093L46.0682 89.8341L73.0666 117.12ZM72.4922 69.0108C75.7952 72.8883 77.3749 75.186 78.093 76.3349C78.2366 76.4785 78.3802 76.7657 78.5238 76.9093C78.6674 77.0529 78.6674 77.1965 78.6674 77.1965C78.9546 77.6273 78.9546 78.0582 79.0982 78.6326V78.9198C79.0982 79.6379 78.9546 80.2123 78.9546 80.3559V80.4995C78.9546 80.6431 78.811 80.6431 78.811 80.7867C78.6674 81.2176 78.5238 81.6484 78.3802 81.9356C78.3802 82.0792 78.2366 82.0792 78.093 82.2228C77.9494 82.5101 77.6621 82.7973 77.5185 82.9409L76.6569 83.8025C76.5133 83.9462 76.2261 84.0898 76.0824 84.0898C75.9388 84.0898 75.7952 84.2334 75.6516 84.2334C75.3644 84.377 75.2208 84.377 74.9336 84.5206C74.79 84.5206 74.6463 84.6642 74.5027 84.6642C74.2155 84.6642 73.9283 84.8078 73.7847 84.8078C73.6411 84.8078 73.6411 84.8078 73.4975 84.8078C73.0666 84.8078 72.7794 84.8078 72.6358 84.8078C71.6306 84.8078 70.4817 84.5206 69.3328 84.0898C69.1892 84.0898 69.1892 83.9462 69.0456 83.9462C68.7584 83.8025 68.4712 83.6589 68.3276 83.5153C68.1839 83.3717 68.0403 83.2281 67.8967 83.2281C67.7531 83.0845 67.6095 82.9409 67.4659 82.7973C67.1787 82.5101 67.0351 82.2228 66.8915 81.9356C66.4606 81.2176 66.4606 80.6431 66.4606 80.6431C65.599 78.0582 66.6042 76.9093 66.6042 76.9093V76.7657C66.7479 76.4785 67.0351 76.1913 67.1787 75.904C69.4764 72.601 72.4922 69.0108 72.4922 69.0108ZM38.026 73.6063C35.1539 70.7341 33.7178 67.0003 33.7178 62.9792C33.7178 58.9582 35.2975 55.2243 38.1697 52.3522C44.0576 46.4642 53.5358 46.6078 59.4238 52.4958L69.9072 62.692C68.902 63.9845 66.4606 67.1439 65.599 68.4364C65.1682 69.0108 64.7373 69.7289 64.1629 70.3033C62.4396 72.4574 60.4291 75.0424 60.4291 78.6326C60.4291 86.3875 66.317 90.5522 72.3486 90.8394H73.9283C79.8163 90.4085 85.417 86.2439 85.417 78.7762C85.417 75.186 83.4065 72.7446 81.6832 70.4469C81.1087 69.7289 80.6779 69.1544 80.2471 68.58C79.3854 67.2875 77.0877 64.4153 75.9388 62.9792L87.2839 52.6394L87.4275 52.4958C93.3155 46.6078 102.794 46.6078 108.538 52.4958C111.41 55.368 112.99 59.1018 112.99 63.1228C112.99 67.1439 111.41 70.8777 108.682 73.7499L96.7621 86.8183L73.0666 110.37L49.9456 86.6747L38.1697 73.7499L38.026 73.6063Z" fill="white"/>
<path d="M74.5047 0.364868H70.6272H70.1964C51.5272 1.08291 34.1505 8.40698 21.0821 21.1882C7.87008 34.113 0.546021 51.0589 0.546021 69.01C0.546021 90.4077 15.4814 106.061 31.2783 122.72C39.7513 131.624 65.3137 151.298 69.4784 154.601L69.7656 154.745C69.7656 154.745 69.9092 154.745 69.9092 154.888L70.1964 155.175L72.6378 157.042L75.3663 154.888C78.3821 152.59 105.237 131.911 113.997 122.72C129.794 106.205 144.729 90.5513 144.729 69.01C144.586 32.1025 113.279 1.37013 74.5047 0.364868ZM4.9979 69.01C4.9979 33.8258 35.1558 4.96036 72.3505 4.67314H72.7814C109.976 4.96036 140.134 33.6822 140.134 69.01C140.134 88.6844 125.773 103.62 110.694 119.56C102.221 128.464 75.6535 149 72.6378 151.298C69.622 149 43.0543 128.464 34.5814 119.56C19.3588 103.763 4.9979 88.6844 4.9979 69.01Z" fill="white"/>
</svg>
