<?xml version="1.0" encoding="UTF-8" standalone="no"?>
<!DOCTYPE svg PUBLIC "-//W3C//DTD SVG 1.1//EN" "http://www.w3.org/Graphics/SVG/1.1/DTD/svg11.dtd">
<svg width="100%" height="100%" viewBox="0 0 72 72" version="1.1" xmlns="http://www.w3.org/2000/svg" xmlns:xlink="http://www.w3.org/1999/xlink" xml:space="preserve" xmlns:serif="http://www.serif.com/" style="fill-rule:evenodd;clip-rule:evenodd;stroke-linejoin:round;stroke-miterlimit:1.41421;">
    <path d="M36.7,64.2C36.3,64.2 35.8,64.2 35.4,64.2C27,63.8 21,60.5 16.5,56C12,51.6 8.8,45.4 8.3,37.2C8.3,36.4 8.3,35.6 8.3,34.8C8.4,34.8 8.4,34.7 8.4,34.7C8.7,28.3 10.8,23.3 13.8,19.3C16.8,15.3 20.5,12.1 25.2,10C30.1,7.8 37,7.1 42.7,8.6C48,9.9 52.5,12.7 55.8,16.2C59.1,19.8 61.9,24.2 63.1,29.7C64.4,35.8 63.5,42.6 61.4,47.6C57.3,56.8 49,63.4 36.7,64.2ZM30.5,12.5C33.7,17 36.6,21.8 39.4,26.6C44.4,24.6 48.6,21.9 51.7,18C47.4,13.6 38.8,10.5 30.5,12.5ZM12.8,31.1C21,31.1 28,29.9 34.6,28.2C32.2,23.4 29,18.7 25.9,14.2L25.8,14.2C19.3,17.6 14.7,22.9 12.8,31.1ZM54.3,20.8C51,25 46.4,28 41.1,30.2C41.9,31.8 42.5,33.5 43.3,35C48.7,34.2 54.9,34.8 59.7,35.7C59.5,29.1 57.4,24.5 54.3,20.8ZM12.3,35.2C12.3,42.9 14.8,48 18.4,52C23.1,44.5 29.5,38.8 38.6,35.8C37.9,34.5 37.4,33 36.6,31.8C29.4,33.9 21.6,35.3 12.3,35.2ZM44.7,38.8C46.6,44.2 48.1,49.9 49.3,56C54.3,52.3 58.1,47.3 59.4,39.8C55.4,38.6 49.6,38 44.7,38.8ZM21.5,54.9C24.1,57.1 27.8,59 32,59.8C36.7,60.6 41.7,59.8 45.2,58.2C44,51.6 42.4,45.5 40.1,40C31.9,42.9 25.6,47.8 21.5,54.9Z" style="fill:rgb(81,191,159);"/>
</svg>
