<?xml version="1.0" encoding="UTF-8" standalone="no"?>
<!DOCTYPE svg PUBLIC "-//W3C//DTD SVG 1.1//EN" "http://www.w3.org/Graphics/SVG/1.1/DTD/svg11.dtd">
<svg width="100%" height="100%" viewBox="0 0 72 72" version="1.1" xmlns="http://www.w3.org/2000/svg" xmlns:xlink="http://www.w3.org/1999/xlink" xml:space="preserve" xmlns:serif="http://www.serif.com/" style="fill-rule:evenodd;clip-rule:evenodd;stroke-linejoin:round;stroke-miterlimit:1.41421;">
    <path d="M45.9,33.7L62.8,21.9L62.8,52.2L45.9,33.7ZM57.6,15.1C59.1,15.1 60.4,15.7 61.3,16.7L36.6,33.9L11,16.4C11.9,15.6 13.1,15.1 14.4,15.1L57.6,15.1ZM9.4,53.1C9.3,52.7 9.2,52.2 9.2,51.7L9.2,21.3L27.2,33.7L9.4,53.1ZM14.4,56.9C13.9,56.9 13.4,56.8 13,56.7L31.4,36.6L36.6,40.2L41.7,36.7L59.8,56.5C59.1,56.8 58.4,57 57.6,57L14.4,57L14.4,56.9Z" style="fill:rgb(81,191,159);fill-rule:nonzero;"/>
</svg>
