<?xml version="1.0" encoding="UTF-8" standalone="no"?>
<!DOCTYPE svg PUBLIC "-//W3C//DTD SVG 1.1//EN" "http://www.w3.org/Graphics/SVG/1.1/DTD/svg11.dtd">
<svg width="100%" height="100%" viewBox="0 0 72 72" version="1.1" xmlns="http://www.w3.org/2000/svg" xmlns:xlink="http://www.w3.org/1999/xlink" xml:space="preserve" xmlns:serif="http://www.serif.com/" style="fill-rule:evenodd;clip-rule:evenodd;stroke-linejoin:round;stroke-miterlimit:1.41421;">
    <g>
        <path d="M47.2,63.6L24.9,63.6C15.9,63.6 8.6,56.3 8.6,47.3L8.6,24.7C8.6,15.7 15.9,8.4 24.9,8.4L47.2,8.4C56.2,8.4 63.5,15.7 63.5,24.7L63.5,47.4C63.5,56.3 56.2,63.6 47.2,63.6ZM24.9,13.3C18.7,13.3 13.6,18.4 13.6,24.6L13.6,47.3C13.6,53.5 18.7,58.6 24.9,58.6L47.2,58.6C53.4,58.6 58.5,53.5 58.5,47.3L58.5,24.7C58.5,18.5 53.4,13.4 47.2,13.4L24.9,13.4L24.9,13.3Z" style="fill:rgb(81,191,159);fill-rule:nonzero;"/>
        <circle cx="50.8" cy="21.4" r="3.3" style="fill:rgb(81,191,159);"/>
        <path d="M36.1,50C28.4,50 22.1,43.7 22.1,36C22.1,28.3 28.4,22 36.1,22C43.8,22 50.1,28.3 50.1,36C50.1,43.7 43.8,50 36.1,50ZM36.1,26.8C31,26.8 26.9,30.9 26.9,36C26.9,41.1 31,45.2 36.1,45.2C41.2,45.2 45.3,41.1 45.3,36C45.3,30.9 41.2,26.8 36.1,26.8Z" style="fill:rgb(81,191,159);fill-rule:nonzero;"/>
    </g>
</svg>
