<svg width="152" height="165" viewBox="0 0 152 165" fill="none" xmlns="http://www.w3.org/2000/svg">
<path d="M77.9644 0.605438H73.9042H73.4531C53.9042 1.35732 35.7087 9.02649 22.0245 22.41C8.18992 35.9438 0.520752 53.6881 0.520752 72.4851C0.520752 94.8912 16.1599 111.282 32.7012 128.726C41.5734 138.049 68.3403 158.651 72.7012 162.109L73.002 162.26C73.002 162.26 73.1523 162.26 73.1523 162.41L73.4531 162.711L76.0095 164.666L78.8666 162.41C82.0245 160.004 110.145 138.35 119.318 128.726C135.859 111.433 151.498 95.0415 151.498 72.4851C151.498 33.9889 118.566 1.80845 77.9644 0.605438ZM5.18241 72.6355C5.18241 35.7934 36.7614 5.56784 75.7087 5.26709H76.1598C115.107 5.56784 146.686 35.643 146.686 72.6355C146.686 93.237 131.649 108.876 115.859 125.568C106.987 134.891 79.1674 156.395 76.0095 158.801C72.8516 156.395 45.032 134.891 36.1599 125.568C20.22 108.876 5.18241 93.237 5.18241 72.6355Z" fill="white"/>
<path d="M74.2031 117.596L76.3083 119.1L77.0602 118.498L78.2632 117.596C82.0226 114.739 94.0527 105.416 98.1128 101.205C106.233 92.6337 114.053 84.5134 114.053 73.0848C114.053 53.3856 97.361 37.145 76.6091 36.9946C76.4587 36.9946 76.4587 36.9946 76.3083 36.9946C76.158 36.9946 76.158 36.9946 76.0076 36.9946C55.2557 37.2954 38.564 53.3856 38.564 73.0848C38.564 84.5134 46.2331 92.6337 54.5038 101.205C59.1655 106.168 73.6016 117.145 74.2031 117.596ZM83.9775 106.919C80.6692 109.626 77.6617 111.882 76.158 113.085C72.3986 110.228 66.8346 105.716 62.4737 102.107L77.8121 86.9194H85.3309L83.9775 106.919ZM109.09 73.0848C109.09 82.5585 102.023 89.9269 94.5038 97.7465C93.3008 98.9495 91.3459 100.754 89.2407 102.559L90.2933 86.6187L92.6993 62.8593L108.188 65.7164C108.79 68.2728 109.09 70.6788 109.09 73.0848ZM68.6392 42.8593C71.0452 42.2578 73.6016 41.957 76.3083 41.957C89.8422 42.1074 101.421 49.7765 106.384 60.9044L90.7444 57.7465H90.4437C88.4888 57.7465 79.9174 58.348 77.6617 58.4984L68.4888 54.5886V42.8593H68.6392ZM63.8271 44.2126V52.3329L55.7068 48.8743C58.1128 47.0698 60.8196 45.4156 63.8271 44.2126ZM43.5264 73.0848C43.5264 65.2653 46.6843 58.0472 51.7971 52.4833L54.2031 53.536L63.8271 57.5961V73.8367H43.5264C43.5264 73.6863 43.5264 73.3856 43.5264 73.0848ZM68.6392 78.7991V59.7014L76.9098 63.3104H77.5113C79.767 63.16 84.579 62.8593 87.8873 62.7089L85.9324 82.1074H76.0076L59.0151 98.7991C58.7143 98.4984 58.2632 98.0472 57.9625 97.8968C52.0978 91.7314 46.3835 85.7164 44.2783 78.7991H68.6392Z" fill="white"/>
</svg>
