<?xml version="1.0" encoding="UTF-8" standalone="no"?>
<!DOCTYPE svg PUBLIC "-//W3C//DTD SVG 1.1//EN" "http://www.w3.org/Graphics/SVG/1.1/DTD/svg11.dtd">
<svg width="100%" height="100%" viewBox="0 0 72 72" version="1.1" xmlns="http://www.w3.org/2000/svg" xmlns:xlink="http://www.w3.org/1999/xlink" xml:space="preserve" xmlns:serif="http://www.serif.com/" style="fill-rule:evenodd;clip-rule:evenodd;stroke-linejoin:round;stroke-miterlimit:1.41421;">
    <path d="M32.3,44.7C31,50.5 29.7,56.1 26.8,60.6C25.9,61.9 25.1,63.7 23.6,64.4C21.4,53 26,43.5 27.8,34C25.5,29.3 26.9,21.3 31.9,20.4C39.1,19.1 37.2,27.7 36,31.8C35.3,34 34.1,36.1 34.3,38.5C34.7,43.6 41.1,43.9 44.4,41.3C49.1,37.5 50.5,30.3 50,24.3C49.3,15.2 39,10.7 29.9,14.3C25.2,16.2 21,20.5 20.4,26.8C20.1,30.1 20.8,32.8 22.1,34.7C22.3,35 23,35.5 23.1,36.2C23.3,37.7 22.4,39.4 21.6,40.6C16.9,39.3 14.5,35.1 14.2,29.8C13.3,17.8 23.2,8.6 34.8,7.8C47.1,6.9 57,14 57.9,24.5C58.6,32.3 55.8,40.1 51.4,44.3C48.1,47.5 41.1,50.5 35.4,47.5C34.1,46.8 33.6,46 32.3,44.7Z" style="fill:rgb(81,191,159);"/>
</svg>
