<svg class="nav-icon__svg" width="159" height="215" viewBox="0 0 159 215" fill="none" xmlns="http://www.w3.org/2000/svg">
<path d="M126.382 30.4519H100.802C100.802 30.4519 106.588 6.3939 79.1801 7.00296C79.1801 7.00296 55.4266 5.78484 62.1263 33.8017L32.5868 30.4519V67.6047L130.037 65.473L126.382 30.4519ZM81.0073 34.7153C76.1348 34.7153 72.1759 30.7564 72.1759 25.8839C72.1759 21.0114 76.1348 17.0525 81.0073 17.0525C85.8798 17.0525 89.8387 21.0114 89.8387 25.8839C89.8387 30.7564 85.8798 34.7153 81.0073 34.7153Z" class="nav-icon__svg--dark-green" />
<path d="M119.987 120.594L111.46 111.458L115.419 107.803L120.292 112.676L129.123 104.149L132.778 108.108L119.987 120.594Z" class="nav-icon__svg--light-green" />
<path d="M119.987 99.2781L111.46 90.1421L115.419 86.1832L120.292 91.0557L129.123 82.5288L132.778 86.7923L119.987 99.2781Z" class="nav-icon__svg--light-green" />
<path d="M147.698 26.7969C153.485 26.7969 158.36 31.672 158.36 37.4546V204.643C158.36 210.43 153.485 215 147.698 215H10.6621C4.87502 215 0 210.125 0 204.338V37.4546C0 31.672 4.87502 26.7969 10.6621 26.7969H55.1215V21.0098C55.1215 9.44004 66.0847 0 79.1776 0C85.5758 0 91.363 2.1297 95.928 6.08814C100.497 10.0466 103.238 15.2272 103.238 21.0098V26.7969H147.698ZM28.9312 69.1265V41.112H14.3151V200.99H144.045V41.112H130.035V69.1265H28.9312ZM28.9312 176.629H130.341V183.634H28.9312V176.629ZM28.9312 153.485H130.341V160.485H28.9312V153.485ZM28.9312 133.994H130.035V140.998H28.9312V133.994ZM28.9312 111.456H55.1215V118.461H28.9312V111.456ZM28.9312 86.4879H93.1872V93.4882H28.9312V86.4879ZM122.729 33.8017H96.2335V21.0098C96.2335 17.3569 94.4048 14.005 91.363 11.2687C88.0111 8.52791 83.7471 7.00475 79.1776 7.00475C69.7376 7.00475 62.1263 13.3985 62.1263 21.0098V33.8017H36.2415V41.112H35.9359V62.4273H123.035V41.112H122.729V33.8017ZM79.4832 35.9359C73.395 35.9359 68.52 31.0609 68.52 24.9727C68.52 18.88 73.395 14.005 79.4832 14.005C85.5758 14.005 90.4464 18.88 90.4464 24.9727C90.4464 31.0609 85.5758 35.9359 79.4832 35.9359ZM79.4832 21.6209C77.3535 21.6209 75.8303 23.144 75.8303 25.2738C75.8303 27.408 77.3535 28.9312 79.4832 28.9312C81.6174 28.9312 83.1406 27.408 83.1406 25.2738C83.1406 23.144 81.3119 21.6209 79.4832 21.6209Z" class="nav-icon__svg--gray" />
</svg>
