<svg width="167" height="182" viewBox="0 0 167 182" fill="none" xmlns="http://www.w3.org/2000/svg">
<path d="M58.8451 118.77C65.2962 123.897 73.8977 126.71 83.1609 126.71H87.1308C95.0707 126.048 102.514 123.401 108.138 118.935C116.244 112.649 120.379 102.89 120.379 90.9802C120.379 82.5441 115.086 75.5967 106.484 64.8448C103.341 61.0403 100.198 56.905 97.221 52.6042C94.5744 48.7997 89.2812 41.5215 85.1459 36.0629L84.1534 34.7396L83.4917 33.7471V33.4163L83.3263 33.5817L83.1609 33.4163V33.7471L82.8301 34.7396L81.8376 36.0629C77.8677 41.3561 72.409 48.6343 69.7624 52.6042C66.7849 56.905 63.6421 60.8749 60.4992 64.8448C51.8977 75.4313 46.6045 82.5441 46.6045 90.9802C46.6045 102.725 50.9052 112.484 58.8451 118.77ZM102.68 68.1531C110.62 77.9125 115.417 84.1982 115.417 90.9802C115.417 101.401 111.943 109.341 105.161 114.634C100.86 118.108 94.0782 120.424 87.4616 121.251L87.2962 105.371C87.4616 105.371 87.6271 105.371 87.6271 105.206L101.687 93.4614C102.349 92.9651 102.349 91.9727 101.853 91.4764L100.529 89.8223C100.033 89.1606 99.0406 89.1606 98.5444 89.6569L87.1308 99.0854V92.4689C87.2962 92.4689 87.4616 92.4689 87.4616 92.3035L98.0481 82.8749C98.7098 82.3787 98.7098 81.3862 98.2135 80.8899L96.8902 79.2358C96.394 78.5742 95.4015 78.5742 94.9053 79.0704L87.1308 86.0178V79.2358C87.2962 79.2358 87.4616 79.2358 87.6271 79.0704L94.409 73.2809C95.0707 72.7847 95.0707 71.7922 94.5744 71.296L93.2511 69.6418C92.7549 68.9802 91.7624 68.9802 91.2662 69.4764L87.2962 72.9501L86.9654 45.8223C91.597 53.2659 100.033 65.0102 102.68 68.1531ZM64.6346 68.1531C67.2812 64.8448 76.2135 52.4388 81.1759 45.4914L81.5068 72.7847L78.1985 69.8072C77.5368 69.311 76.7098 69.311 76.2135 69.9727L74.8902 71.6268C74.394 72.2884 74.394 73.1155 75.0556 73.6118L81.6722 79.4012V86.0178L74.2286 79.4012C73.5669 78.905 72.7398 78.905 72.2436 79.5666L70.9203 81.2208C70.424 81.8824 70.424 82.7095 71.0857 83.2057L81.6722 92.6343H81.8376V99.2509L70.5895 89.8223C69.9278 89.326 69.1007 89.326 68.6045 89.9877L67.2812 91.6418C66.7849 92.3035 66.785 93.1306 67.4466 93.6268L81.5068 105.371C81.6722 105.537 81.8376 105.537 82.003 105.537L82.1684 121.582C75.0556 121.085 67.1158 118.604 62.3188 114.8C55.5368 109.341 52.0631 101.401 52.0631 91.1456C51.8977 84.1982 56.8601 77.9125 64.6346 68.1531Z" fill="white"/>
<path d="M85.6413 0.666016H81.1752H80.6789C59.1752 1.49308 39.1601 9.92918 24.1075 24.651C8.88946 39.5382 0.453369 59.057 0.453369 79.7337C0.453369 104.38 17.6564 122.41 35.8519 141.598C45.6113 151.854 75.0549 174.516 79.8519 178.32L80.1827 178.486C80.1827 178.486 80.3481 178.486 80.3481 178.651L80.6789 178.982L83.491 181.132L86.6338 178.651C90.1075 176.004 121.04 152.185 131.13 141.598C149.326 122.576 166.529 104.546 166.529 79.7337C166.529 37.3878 130.303 1.98932 85.6413 0.666016ZM5.7466 79.8991C5.7466 39.3728 40.4834 6.12466 83.3256 5.79383H83.8218C126.664 6.12466 161.401 39.2074 161.401 79.8991C161.401 102.561 144.859 119.764 127.491 138.125C117.732 148.38 87.1301 172.034 83.6564 174.681C80.1827 172.034 49.5812 148.38 39.8218 138.125C22.1225 119.764 5.7466 102.561 5.7466 79.8991Z" fill="white"/>
</svg>
