<?xml version="1.0" encoding="UTF-8" standalone="no"?>
<!DOCTYPE svg PUBLIC "-//W3C//DTD SVG 1.1//EN" "http://www.w3.org/Graphics/SVG/1.1/DTD/svg11.dtd">
<svg width="100%" height="100%" viewBox="0 0 72 72" version="1.1" xmlns="http://www.w3.org/2000/svg" xmlns:xlink="http://www.w3.org/1999/xlink" xml:space="preserve" xmlns:serif="http://www.serif.com/" style="fill-rule:evenodd;clip-rule:evenodd;stroke-linejoin:round;stroke-miterlimit:1.41421;">
    <path d="M65.5,17.6C65.1,19.9 61.6,21.9 60,24.2C61.8,51.2 30.6,69.4 6.5,54.9C13.2,55.2 19.7,53.1 24.1,50.1C19.8,49 14.3,46.4 13.1,41.1C14.9,41.8 16.2,41.1 18.3,41.1C13.2,39 9.1,36.1 9,29C10.6,29.5 11.9,30.2 13.8,30.4C10.6,28.3 7,20 10.3,14.2C16.4,20.7 23.9,25.9 35.5,27C33,13 48.8,8.1 56.5,15.5C59.5,15.2 61.9,14.3 63.7,12.7C64.2,15.4 61,17.3 59.6,19.3C61.8,18.9 63.9,18.5 65.5,17.6Z" style="fill:rgb(81,191,159);"/>
</svg>
